<svg id="svg" version="1.1" xmlns="http://www.w3.org/2000/svg" xmlns:xlink="http://www.w3.org/1999/xlink" width="400" height="382.7586206896552" viewBox="0, 0, 400,382.7586206896552"><g id="svgg"><path id="path0" d="M132.931 66.262 C 131.001 66.820,130.526 69.022,130.526 77.415 C 130.526 87.775,130.416 87.656,139.999 87.656 C 150.954 87.656,151.005 87.605,151.005 76.746 C 151.005 66.097,150.729 65.814,140.375 65.872 C 136.958 65.891,133.609 66.067,132.931 66.262 M206.573 66.628 C 204.270 67.868,204.019 68.910,204.019 77.223 C 204.019 87.525,204.158 87.656,215.083 87.656 C 221.805 87.656,221.992 87.634,223.041 86.733 L 224.115 85.810 224.324 78.407 C 224.546 70.503,224.251 67.784,223.053 66.698 C 221.826 65.587,208.611 65.531,206.573 66.628 M124.211 97.644 C 115.004 99.730,109.477 103.677,105.825 110.774 C 103.586 115.127,103.356 116.830,103.352 129.094 L 103.349 139.337 105.528 141.726 C 106.726 143.040,108.079 144.373,108.534 144.689 C 108.989 145.005,109.965 145.866,110.702 146.603 C 111.438 147.340,113.795 149.579,115.939 151.579 C 118.082 153.579,121.192 156.539,122.849 158.156 C 128.029 163.212,130.085 163.571,134.136 160.130 C 134.963 159.427,135.850 158.852,136.107 158.852 C 136.364 158.852,137.495 158.225,138.622 157.458 C 139.748 156.692,141.697 155.642,142.952 155.126 C 144.207 154.609,145.656 153.855,146.171 153.449 C 146.687 153.044,148.329 152.349,149.822 151.906 C 151.315 151.463,153.726 150.586,155.181 149.959 C 156.842 149.243,159.775 148.482,163.060 147.917 C 165.938 147.421,168.717 146.854,169.235 146.657 C 172.958 145.242,184.419 145.333,189.665 146.820 C 190.718 147.118,193.560 147.717,195.981 148.150 C 198.626 148.623,201.299 149.372,202.679 150.026 C 203.943 150.626,206.137 151.492,207.556 151.951 C 208.974 152.411,210.240 152.957,210.368 153.164 C 210.497 153.372,211.998 154.224,213.705 155.058 C 215.413 155.892,216.905 156.730,217.022 156.920 C 217.140 157.110,218.218 157.837,219.419 158.537 C 220.620 159.236,222.512 160.446,223.624 161.225 C 226.328 163.118,228.591 162.831,231.027 160.284 C 232.431 158.818,241.182 150.501,245.127 146.885 C 253.217 139.469,252.855 140.500,252.520 125.792 C 252.287 115.576,251.864 112.934,250.018 110.170 C 249.411 109.261,248.458 107.787,247.900 106.895 C 246.256 104.267,241.082 100.453,237.895 99.521 C 236.421 99.090,234.612 98.440,233.876 98.077 C 232.360 97.330,127.425 96.916,124.211 97.644 M104.170 155.922 L 103.349 156.796 103.349 229.756 L 103.349 302.716 104.354 303.911 C 105.597 305.387,107.452 306.356,110.603 307.172 C 111.936 307.517,113.820 308.209,114.791 308.709 C 118.508 310.623,122.565 310.474,123.199 308.401 C 123.432 307.641,123.641 287.817,123.749 256.097 L 123.924 205.017 122.249 203.294 L 120.574 201.571 120.574 194.605 L 120.574 187.639 121.877 186.496 C 125.538 183.281,124.905 172.204,120.901 169.426 C 120.080 168.857,115.139 164.334,110.602 160.000 C 105.001 154.649,105.230 154.794,104.170 155.922 M171.506 155.794 C 170.151 155.985,167.912 156.480,166.530 156.892 C 165.149 157.305,162.302 158.010,160.204 158.458 C 158.022 158.924,155.564 159.737,154.462 160.356 C 153.403 160.951,151.641 161.728,150.548 162.083 C 149.455 162.437,148.128 163.066,147.601 163.481 C 147.073 163.896,145.696 164.654,144.540 165.165 C 143.384 165.676,141.664 166.661,140.719 167.353 C 139.773 168.046,138.225 169.091,137.279 169.676 C 133.649 171.923,132.424 181.503,135.150 186.334 L 136.330 188.423 136.203 195.034 C 136.099 200.472,135.966 201.770,135.453 202.353 C 133.618 204.439,133.710 201.838,133.457 258.597 C 133.271 300.476,133.321 311.959,133.691 312.416 C 134.521 313.440,136.025 314.258,137.077 314.258 C 137.639 314.258,140.056 314.762,142.447 315.378 C 154.436 318.466,199.161 319.069,213.014 316.329 C 216.580 315.624,219.373 314.509,220.284 313.427 L 221.244 312.286 221.244 260.503 C 221.244 232.022,221.348 207.963,221.474 207.039 C 221.681 205.529,221.556 205.145,220.239 203.254 L 218.773 201.148 218.764 194.622 L 218.756 188.096 220.147 186.471 C 221.823 184.514,222.010 183.696,222.010 178.313 C 222.010 172.753,221.278 171.187,217.547 168.765 C 213.406 166.077,209.732 163.918,207.464 162.840 C 206.306 162.290,204.153 161.262,202.679 160.557 C 201.206 159.852,197.933 158.750,195.407 158.109 C 192.880 157.469,189.866 156.682,188.708 156.360 C 186.156 155.653,175.095 155.289,171.506 155.794 M248.532 157.033 C 247.885 157.718,245.675 159.828,243.622 161.722 C 237.979 166.930,234.502 170.345,232.965 172.189 L 231.579 173.852 231.579 179.192 C 231.579 184.329,231.614 184.568,232.504 185.458 C 234.588 187.541,234.642 187.752,234.624 193.674 C 234.604 200.532,234.308 202.188,232.820 203.762 L 231.672 204.976 231.419 257.225 C 231.151 312.499,231.087 309.435,232.553 311.500 C 232.828 311.887,243.099 309.434,245.036 308.518 C 246.311 307.915,248.014 307.311,248.820 307.174 C 253.018 306.465,252.688 313.357,252.554 229.153 L 252.440 157.253 251.537 156.521 C 250.303 155.522,249.898 155.592,248.532 157.033 M87.459 257.093 C 86.100 258.452,86.068 259.411,86.099 298.166 C 86.134 341.684,86.008 339.666,89.072 345.933 C 91.160 350.206,91.663 350.720,92.954 349.902 C 93.639 349.468,93.643 259.948,92.958 258.623 C 91.807 256.394,88.953 255.599,87.459 257.093 M264.826 257.230 C 262.496 258.461,262.584 256.740,262.584 301.235 C 262.584 327.675,262.438 343.515,262.170 346.174 C 261.600 351.847,263.011 354.051,265.067 350.695 C 265.491 350.003,266.375 348.766,267.033 347.946 C 267.775 347.021,268.479 345.466,268.889 343.849 C 269.252 342.416,269.920 340.038,270.373 338.565 C 271.493 334.918,271.894 260.543,270.802 258.876 C 269.340 256.645,267.100 256.028,264.826 257.230 M104.153 317.167 C 103.711 317.729,103.345 318.381,103.339 318.616 C 103.177 325.606,103.479 344.613,103.784 346.579 C 105.193 355.663,114.454 364.147,124.065 365.159 C 129.284 365.708,228.593 365.678,232.699 365.126 C 239.029 364.274,245.304 360.220,248.974 354.612 C 252.326 349.490,252.632 347.510,252.632 330.909 L 252.632 318.907 251.579 318.077 C 250.264 317.039,248.152 317.239,245.007 318.697 C 243.832 319.242,240.976 320.088,238.660 320.577 C 231.866 322.011,231.196 322.613,231.196 327.278 C 231.196 329.014,230.970 330.058,230.360 331.144 L 229.524 332.632 227.011 332.631 C 223.111 332.630,222.018 331.907,220.953 328.622 C 219.705 324.772,219.714 324.778,215.655 325.704 C 210.846 326.803,207.594 327.178,198.852 327.643 C 194.641 327.867,188.354 328.226,184.880 328.441 C 180.581 328.708,177.403 328.708,174.928 328.442 C 172.928 328.227,169.483 328.047,167.273 328.041 C 159.523 328.021,145.041 326.676,142.605 325.750 C 136.936 323.594,133.206 324.327,133.206 327.597 C 133.206 330.439,131.319 331.866,127.561 331.866 C 124.273 331.866,123.432 330.867,123.123 326.600 C 122.803 322.178,121.873 321.038,117.895 320.191 C 117.158 320.034,115.736 319.493,114.734 318.988 C 113.733 318.483,111.407 317.720,109.567 317.292 C 107.726 316.863,105.936 316.430,105.589 316.329 C 105.209 316.218,104.637 316.552,104.153 317.167 " stroke="none" fill="#0a0a0a" fill-rule="evenodd"></path><path id="path1" d="M0.000 191.388 L 0.000 382.775 200.000 382.775 L 400.000 382.775 400.000 191.388 L 400.000 0.000 200.000 0.000 L 0.000 0.000 0.000 191.388 M148.097 66.441 C 150.671 67.471,151.005 68.655,151.005 76.746 C 151.005 87.605,150.954 87.656,139.999 87.656 C 130.416 87.656,130.526 87.775,130.526 77.415 C 130.526 69.022,131.001 66.820,132.931 66.262 C 135.147 65.622,146.380 65.754,148.097 66.441 M223.053 66.698 C 224.251 67.784,224.546 70.503,224.324 78.407 L 224.115 85.810 223.041 86.733 C 221.992 87.634,221.805 87.656,215.083 87.656 C 204.158 87.656,204.019 87.525,204.019 77.223 C 204.019 65.908,204.138 65.788,215.176 65.934 C 221.351 66.016,222.413 66.119,223.053 66.698 M233.876 98.077 C 234.612 98.440,236.421 99.090,237.895 99.521 C 241.082 100.453,246.256 104.267,247.900 106.895 C 248.458 107.787,249.411 109.261,250.018 110.170 C 251.864 112.934,252.287 115.576,252.520 125.792 C 252.855 140.500,253.217 139.469,245.127 146.885 C 241.182 150.501,232.431 158.818,231.027 160.284 C 228.591 162.831,226.328 163.118,223.624 161.225 C 222.512 160.446,220.620 159.236,219.419 158.537 C 218.218 157.837,217.140 157.110,217.022 156.920 C 216.905 156.730,215.413 155.892,213.705 155.058 C 211.998 154.224,210.497 153.372,210.368 153.164 C 210.240 152.957,208.974 152.411,207.556 151.951 C 206.137 151.492,203.943 150.626,202.679 150.026 C 201.299 149.372,198.626 148.623,195.981 148.150 C 193.560 147.717,190.718 147.118,189.665 146.820 C 184.419 145.333,172.958 145.242,169.235 146.657 C 168.717 146.854,165.938 147.421,163.060 147.917 C 159.775 148.482,156.842 149.243,155.181 149.959 C 153.726 150.586,151.315 151.463,149.822 151.906 C 148.329 152.349,146.687 153.044,146.171 153.449 C 145.656 153.855,144.207 154.609,142.952 155.126 C 141.697 155.642,139.748 156.692,138.622 157.458 C 137.495 158.225,136.364 158.852,136.107 158.852 C 135.850 158.852,134.963 159.427,134.136 160.130 C 130.085 163.571,128.029 163.212,122.849 158.156 C 121.192 156.539,118.082 153.579,115.939 151.579 C 113.795 149.579,111.438 147.340,110.702 146.603 C 109.965 145.866,108.989 145.005,108.534 144.689 C 108.079 144.373,106.726 143.040,105.528 141.726 L 103.349 139.337 103.352 129.094 C 103.356 116.830,103.586 115.127,105.825 110.774 C 109.477 103.677,115.004 99.730,124.211 97.644 C 127.425 96.916,232.360 97.330,233.876 98.077 M107.318 156.896 C 108.133 157.656,109.610 159.053,110.602 160.000 C 115.139 164.334,120.080 168.857,120.901 169.426 C 123.346 171.122,124.019 173.118,124.019 178.665 C 124.019 184.221,123.877 184.739,121.877 186.496 L 120.574 187.639 120.574 194.605 L 120.574 201.571 122.249 203.294 L 123.924 205.017 123.749 256.097 C 123.641 287.817,123.432 307.641,123.199 308.401 C 122.565 310.474,118.508 310.623,114.791 308.709 C 113.820 308.209,111.936 307.517,110.603 307.172 C 107.452 306.356,105.597 305.387,104.354 303.911 L 103.349 302.716 103.349 229.756 L 103.349 156.796 104.170 155.922 C 105.101 154.932,105.269 154.984,107.318 156.896 M188.708 156.360 C 189.866 156.682,192.880 157.469,195.407 158.109 C 197.933 158.750,201.206 159.852,202.679 160.557 C 204.153 161.262,206.306 162.290,207.464 162.840 C 219.158 168.398,222.010 171.431,222.010 178.313 C 222.010 183.696,221.823 184.514,220.147 186.471 L 218.756 188.096 218.764 194.622 L 218.773 201.148 220.239 203.254 C 221.556 205.145,221.681 205.529,221.474 207.039 C 221.348 207.963,221.244 232.022,221.244 260.503 L 221.244 312.286 220.284 313.427 C 215.899 318.638,160.495 320.027,142.447 315.378 C 140.056 314.762,137.639 314.258,137.077 314.258 C 136.025 314.258,134.521 313.440,133.691 312.416 C 133.321 311.959,133.271 300.476,133.457 258.597 C 133.710 201.838,133.618 204.439,135.453 202.353 C 135.966 201.770,136.099 200.472,136.203 195.034 L 136.330 188.423 135.150 186.334 C 132.424 181.503,133.649 171.923,137.279 169.676 C 138.225 169.091,139.773 168.046,140.719 167.353 C 141.664 166.661,143.384 165.676,144.540 165.165 C 145.696 164.654,147.073 163.896,147.601 163.481 C 148.128 163.066,149.455 162.437,150.548 162.083 C 151.641 161.728,153.403 160.951,154.462 160.356 C 155.564 159.737,158.022 158.924,160.204 158.458 C 162.302 158.010,165.149 157.305,166.530 156.892 C 171.767 155.327,183.930 155.035,188.708 156.360 M251.537 156.521 L 252.440 157.253 252.554 229.153 C 252.688 313.357,253.018 306.465,248.820 307.174 C 248.014 307.311,246.311 307.915,245.036 308.518 C 243.099 309.434,232.828 311.887,232.553 311.500 C 231.087 309.435,231.151 312.499,231.419 257.225 L 231.672 204.976 232.820 203.762 C 234.308 202.188,234.604 200.532,234.624 193.674 C 234.642 187.752,234.588 187.541,232.504 185.458 C 231.614 184.568,231.579 184.329,231.579 179.192 L 231.579 173.852 232.965 172.189 C 234.502 170.345,237.979 166.930,243.622 161.722 C 245.675 159.828,247.885 157.718,248.532 157.033 C 249.898 155.592,250.303 155.522,251.537 156.521 M91.949 257.129 C 93.392 258.784,93.383 258.486,93.426 304.511 C 93.470 352.200,93.541 350.217,91.808 350.233 C 90.854 350.242,87.072 342.253,86.548 339.123 C 85.996 335.819,85.901 260.153,86.447 258.720 C 87.305 256.470,90.554 255.530,91.949 257.129 M268.974 257.208 C 271.590 258.803,271.417 255.778,271.301 297.841 C 271.197 335.545,271.189 335.909,270.373 338.565 C 269.920 340.038,269.252 342.416,268.889 343.849 C 268.479 345.466,267.775 347.021,267.033 347.946 C 266.375 348.766,265.491 350.003,265.067 350.695 C 263.011 354.051,261.600 351.847,262.170 346.174 C 262.438 343.515,262.584 327.675,262.584 301.235 C 262.584 272.324,262.708 260.046,263.008 259.184 C 263.804 256.901,266.828 255.899,268.974 257.208 M109.567 317.292 C 111.407 317.720,113.733 318.483,114.734 318.988 C 115.736 319.493,117.158 320.034,117.895 320.191 C 121.873 321.038,122.803 322.178,123.123 326.600 C 123.432 330.867,124.273 331.866,127.561 331.866 C 131.319 331.866,133.206 330.439,133.206 327.597 C 133.206 324.327,136.936 323.594,142.605 325.750 C 145.041 326.676,159.523 328.021,167.273 328.041 C 169.483 328.047,172.928 328.227,174.928 328.442 C 177.403 328.708,180.581 328.708,184.880 328.441 C 188.354 328.226,194.641 327.867,198.852 327.643 C 207.594 327.178,210.846 326.803,215.655 325.704 C 219.714 324.778,219.705 324.772,220.953 328.622 C 222.018 331.907,223.111 332.630,227.011 332.631 L 229.524 332.632 230.360 331.144 C 230.970 330.058,231.196 329.014,231.196 327.278 C 231.196 322.613,231.866 322.011,238.660 320.577 C 240.976 320.088,243.832 319.242,245.007 318.697 C 248.152 317.239,250.264 317.039,251.579 318.077 L 252.632 318.907 252.632 330.909 C 252.632 347.510,252.326 349.490,248.974 354.612 C 245.304 360.220,239.029 364.274,232.699 365.126 C 228.593 365.678,129.284 365.708,124.065 365.159 C 114.454 364.147,105.193 355.663,103.784 346.579 C 103.479 344.613,103.177 325.606,103.339 318.616 C 103.359 317.768,104.955 316.145,105.589 316.329 C 105.936 316.430,107.726 316.863,109.567 317.292 " stroke="none" fill="#fbfbfb" fill-rule="evenodd"></path></g></svg>