<svg id="svg" version="1.1" xmlns="http://www.w3.org/2000/svg" xmlns:xlink="http://www.w3.org/1999/xlink" width="400" height="292.9577464788732" viewBox="0, 0, 400,292.9577464788732"><g id="svgg"><path id="path0" d="M76.776 97.143 C 75.807 98.311,76.037 100.196,77.306 101.490 C 79.363 103.586,81.041 105.595,81.753 106.813 C 82.130 107.458,82.739 108.315,83.108 108.718 C 83.476 109.121,84.104 110.176,84.502 111.062 C 84.900 111.949,85.519 113.029,85.878 113.463 C 86.236 113.897,86.903 115.138,87.359 116.220 C 87.816 117.302,88.446 118.463,88.761 118.800 C 89.075 119.138,89.666 120.302,90.073 121.388 C 90.480 122.474,91.149 123.935,91.559 124.635 C 91.969 125.335,92.566 126.667,92.885 127.594 C 93.204 128.522,93.858 129.966,94.337 130.803 C 94.816 131.641,95.535 133.640,95.935 135.247 C 96.335 136.854,96.933 138.914,97.263 139.824 C 97.593 140.735,98.143 143.636,98.486 146.271 C 98.828 148.906,99.370 151.788,99.689 152.674 C 100.009 153.560,100.646 155.648,101.106 157.312 C 101.566 158.977,102.361 161.144,102.874 162.128 C 103.386 163.112,104.046 164.618,104.340 165.473 C 104.635 166.329,105.199 167.458,105.595 167.983 C 105.991 168.508,106.599 169.449,106.946 170.074 C 107.633 171.310,109.621 173.770,110.735 174.763 C 111.119 175.105,111.954 175.879,112.590 176.484 C 113.227 177.088,113.924 177.582,114.141 177.582 C 114.357 177.582,115.104 178.017,115.802 178.548 C 116.499 179.079,117.241 179.618,117.451 179.746 C 117.788 179.953,120.921 180.798,126.447 182.174 C 129.232 182.868,136.308 182.616,137.911 181.766 C 138.575 181.413,140.488 180.850,142.160 180.514 C 144.259 180.091,145.650 179.626,146.650 179.012 C 147.447 178.523,149.293 177.812,150.754 177.433 C 152.214 177.053,154.002 176.412,154.726 176.008 C 155.451 175.604,157.099 174.988,158.388 174.639 C 159.678 174.290,161.128 173.766,161.612 173.473 C 162.095 173.181,163.744 172.588,165.275 172.155 C 166.806 171.723,168.611 171.051,169.287 170.664 C 169.963 170.276,171.809 169.617,173.390 169.200 C 174.970 168.783,176.923 168.073,177.729 167.622 C 178.535 167.171,180.371 166.517,181.810 166.167 C 183.249 165.818,184.963 165.220,185.620 164.839 C 186.276 164.458,188.132 163.800,189.744 163.376 C 191.355 162.952,193.137 162.286,193.704 161.897 C 194.270 161.507,195.756 160.772,197.005 160.263 C 200.324 158.912,198.645 157.949,192.969 157.949 C 188.982 157.949,177.730 157.093,173.351 156.457 C 171.085 156.128,167.912 155.675,166.300 155.451 C 160.995 154.713,156.649 153.887,155.471 153.394 C 154.833 153.127,152.658 152.536,150.636 152.080 C 148.614 151.624,146.360 150.994,145.627 150.680 C 144.894 150.365,143.180 149.766,141.817 149.349 C 140.455 148.931,138.839 148.246,138.226 147.827 C 137.613 147.407,136.362 146.806,135.447 146.491 C 134.531 146.176,133.315 145.595,132.746 145.200 C 132.176 144.806,130.877 144.144,129.859 143.730 C 128.840 143.317,127.368 142.555,126.587 142.038 C 124.801 140.856,122.846 139.606,120.916 138.411 C 120.090 137.900,118.886 137.068,118.242 136.562 C 116.360 135.086,114.865 134.006,112.674 132.542 C 111.546 131.787,110.491 130.998,110.330 130.786 C 110.168 130.575,109.418 129.974,108.661 129.450 C 106.741 128.122,103.940 125.994,103.590 125.597 C 103.429 125.415,102.705 124.806,101.981 124.245 C 95.859 119.492,88.387 111.602,87.603 109.063 C 87.470 108.632,87.017 107.223,86.597 105.934 C 86.176 104.645,85.538 102.530,85.178 101.234 C 84.212 97.759,83.667 97.126,81.433 96.893 C 78.528 96.589,77.176 96.662,76.776 97.143 M307.839 98.361 C 306.396 99.119,305.053 100.558,304.173 102.289 C 303.717 103.185,303.125 104.100,302.857 104.322 C 302.589 104.545,301.969 105.521,301.479 106.492 C 300.232 108.961,297.925 111.466,295.653 112.815 C 294.592 113.446,293.546 114.176,293.328 114.438 C 293.111 114.700,292.397 115.186,291.741 115.518 C 291.086 115.850,290.088 116.511,289.524 116.987 C 288.960 117.462,287.707 118.372,286.740 119.008 C 284.164 120.703,282.251 122.090,281.123 123.081 C 280.575 123.562,279.982 123.956,279.805 123.956 C 279.628 123.956,278.814 124.437,277.996 125.025 C 277.177 125.613,275.908 126.357,275.177 126.678 C 274.445 126.999,273.379 127.628,272.807 128.077 C 272.236 128.525,270.984 129.239,270.026 129.663 C 269.068 130.086,268.018 130.683,267.692 130.989 C 267.367 131.295,266.316 131.892,265.358 132.316 C 264.400 132.739,263.221 133.373,262.739 133.723 C 262.256 134.073,260.866 134.870,259.649 135.494 C 256.839 136.934,253.260 138.819,249.524 140.826 C 247.912 141.692,245.474 142.945,244.106 143.611 C 242.738 144.277,241.287 145.049,240.882 145.328 C 240.478 145.606,239.385 146.137,238.454 146.507 C 237.523 146.878,236.426 147.444,236.016 147.767 C 235.606 148.089,234.277 148.724,233.061 149.177 C 231.846 149.630,230.372 150.331,229.785 150.734 C 229.198 151.136,227.927 151.756,226.960 152.111 C 225.993 152.466,224.828 153.019,224.371 153.339 C 223.914 153.659,222.481 154.368,221.186 154.914 C 219.891 155.461,218.449 156.180,217.981 156.513 C 217.514 156.845,216.314 157.438,215.315 157.829 C 214.316 158.221,213.011 158.864,212.414 159.259 C 211.818 159.654,210.429 160.261,209.328 160.608 C 208.227 160.956,206.758 161.564,206.063 161.961 C 205.368 162.358,203.657 163.014,202.261 163.419 C 200.865 163.824,199.186 164.469,198.531 164.853 C 197.876 165.237,196.224 165.875,194.860 166.270 C 193.497 166.666,191.788 167.321,191.062 167.725 C 190.337 168.130,188.765 168.730,187.570 169.060 C 186.375 169.390,184.727 170.010,183.909 170.438 C 183.091 170.866,181.255 171.535,179.829 171.926 C 178.403 172.317,176.490 173.006,175.578 173.457 C 174.666 173.909,173.062 174.510,172.015 174.792 C 170.967 175.075,169.502 175.613,168.760 175.989 C 168.017 176.364,166.185 177.015,164.689 177.436 C 163.192 177.857,161.346 178.516,160.586 178.901 C 159.826 179.286,157.966 179.949,156.452 180.374 C 154.938 180.798,153.283 181.402,152.774 181.716 C 152.265 182.029,150.353 182.669,148.525 183.138 C 146.697 183.607,144.476 184.318,143.590 184.717 C 140.494 186.112,130.331 186.655,123.516 185.790 C 119.050 185.222,119.204 185.205,118.912 186.315 C 118.667 187.243,118.738 187.360,120.688 189.245 C 129.294 197.567,134.050 201.831,136.286 203.230 C 136.999 203.676,137.686 204.217,137.814 204.433 C 137.941 204.648,138.666 205.178,139.425 205.610 C 140.185 206.042,141.136 206.698,141.540 207.067 C 141.944 207.436,143.166 208.074,144.256 208.484 C 145.347 208.894,146.740 209.562,147.353 209.967 C 148.035 210.419,149.727 210.988,151.719 211.437 C 153.508 211.840,155.806 212.481,156.826 212.862 C 159.412 213.826,166.608 214.787,177.143 215.573 C 182.664 215.985,199.842 214.178,202.784 212.875 C 203.670 212.483,205.894 211.833,207.726 211.431 C 209.835 210.969,211.620 210.378,212.595 209.820 C 213.442 209.336,214.704 208.738,215.399 208.493 C 216.094 208.248,217.107 207.708,217.651 207.294 C 218.194 206.880,219.374 206.241,220.274 205.875 C 221.173 205.509,222.452 204.793,223.116 204.283 C 224.398 203.297,226.411 201.891,228.571 200.471 C 229.297 199.995,230.418 199.193,231.062 198.690 C 232.230 197.779,233.711 196.743,236.777 194.696 C 237.663 194.104,238.741 193.275,239.171 192.854 C 239.602 192.433,240.833 191.297,241.907 190.330 C 242.981 189.363,244.503 187.978,245.289 187.253 C 246.075 186.527,247.390 185.341,248.212 184.615 C 249.034 183.890,250.588 182.375,251.666 181.247 C 252.744 180.120,254.154 178.646,254.799 177.971 C 255.443 177.296,256.762 175.803,257.729 174.653 C 258.696 173.503,260.608 171.393,261.978 169.964 C 265.976 165.793,266.652 165.016,267.683 163.404 C 268.220 162.566,268.877 161.698,269.145 161.476 C 269.412 161.254,269.977 160.468,270.401 159.730 C 270.824 158.992,271.608 157.893,272.142 157.289 C 272.676 156.684,273.114 156.058,273.114 155.897 C 273.114 155.737,273.558 155.111,274.101 154.506 C 274.644 153.901,275.570 152.681,276.160 151.795 C 276.749 150.908,277.656 149.631,278.176 148.956 C 279.384 147.387,280.213 146.144,281.235 144.368 C 281.684 143.587,282.348 142.532,282.710 142.024 C 283.073 141.515,283.600 140.719,283.882 140.255 C 284.165 139.790,284.817 138.801,285.331 138.057 C 285.846 137.312,286.687 135.912,287.200 134.945 C 287.714 133.978,288.578 132.692,289.122 132.087 C 289.665 131.482,290.110 130.852,290.110 130.687 C 290.110 130.521,290.835 129.327,291.722 128.033 C 292.608 126.739,293.333 125.541,293.333 125.373 C 293.333 125.204,293.752 124.538,294.263 123.892 C 294.775 123.246,295.545 121.974,295.975 121.066 C 296.405 120.157,296.986 119.224,297.267 118.992 C 297.547 118.760,298.151 117.829,298.608 116.923 C 299.065 116.017,299.659 115.094,299.927 114.872 C 300.195 114.649,300.796 113.711,301.263 112.786 C 301.730 111.861,302.403 110.900,302.760 110.651 C 303.116 110.401,305.205 108.485,307.401 106.393 C 309.597 104.300,312.078 102.044,312.913 101.379 C 314.608 100.030,314.672 99.874,313.865 99.067 C 312.702 97.904,309.436 97.521,307.839 98.361 " stroke="none" fill="#0a0a0a" fill-rule="evenodd"></path><path id="path1" d="M0.000 146.520 L 0.000 293.040 200.000 293.040 L 400.000 293.040 400.000 146.520 L 400.000 0.000 200.000 0.000 L 0.000 0.000 0.000 146.520 M81.433 96.893 C 83.667 97.126,84.212 97.759,85.178 101.234 C 85.538 102.530,86.176 104.645,86.597 105.934 C 87.017 107.223,87.470 108.632,87.603 109.063 C 88.387 111.602,95.859 119.492,101.981 124.245 C 102.705 124.806,103.429 125.415,103.590 125.597 C 103.940 125.994,106.741 128.122,108.661 129.450 C 109.418 129.974,110.168 130.575,110.330 130.786 C 110.491 130.998,111.546 131.787,112.674 132.542 C 114.865 134.006,116.360 135.086,118.242 136.562 C 118.886 137.068,120.090 137.900,120.916 138.411 C 122.846 139.606,124.801 140.856,126.587 142.038 C 127.368 142.555,128.840 143.317,129.859 143.730 C 130.877 144.144,132.176 144.806,132.746 145.200 C 133.315 145.595,134.531 146.176,135.447 146.491 C 136.362 146.806,137.613 147.407,138.226 147.827 C 138.839 148.246,140.455 148.931,141.817 149.349 C 143.180 149.766,144.894 150.365,145.627 150.680 C 146.360 150.994,148.614 151.624,150.636 152.080 C 152.658 152.536,154.833 153.127,155.471 153.394 C 156.649 153.887,160.995 154.713,166.300 155.451 C 167.912 155.675,171.085 156.128,173.351 156.457 C 177.730 157.093,188.982 157.949,192.969 157.949 C 198.645 157.949,200.324 158.912,197.005 160.263 C 195.756 160.772,194.270 161.507,193.704 161.897 C 193.137 162.286,191.355 162.952,189.744 163.376 C 188.132 163.800,186.276 164.458,185.620 164.839 C 184.963 165.220,183.249 165.818,181.810 166.167 C 180.371 166.517,178.535 167.171,177.729 167.622 C 176.923 168.073,174.970 168.783,173.390 169.200 C 171.809 169.617,169.963 170.276,169.287 170.664 C 168.611 171.051,166.806 171.723,165.275 172.155 C 163.744 172.588,162.095 173.181,161.612 173.473 C 161.128 173.766,159.678 174.290,158.388 174.639 C 157.099 174.988,155.451 175.604,154.726 176.008 C 154.002 176.412,152.214 177.053,150.754 177.433 C 149.293 177.812,147.447 178.523,146.650 179.012 C 145.650 179.626,144.259 180.091,142.160 180.514 C 140.488 180.850,138.575 181.413,137.911 181.766 C 136.308 182.616,129.232 182.868,126.447 182.174 C 120.921 180.798,117.788 179.953,117.451 179.746 C 117.241 179.618,116.499 179.079,115.802 178.548 C 115.104 178.017,114.357 177.582,114.141 177.582 C 113.924 177.582,113.227 177.088,112.590 176.484 C 111.954 175.879,111.119 175.105,110.735 174.763 C 109.621 173.770,107.633 171.310,106.946 170.074 C 106.599 169.449,105.991 168.508,105.595 167.983 C 105.199 167.458,104.635 166.329,104.340 165.473 C 104.046 164.618,103.386 163.112,102.874 162.128 C 102.361 161.144,101.566 158.977,101.106 157.312 C 100.646 155.648,100.009 153.560,99.689 152.674 C 99.370 151.788,98.828 148.906,98.486 146.271 C 98.143 143.636,97.593 140.735,97.263 139.824 C 96.933 138.914,96.335 136.854,95.935 135.247 C 95.535 133.640,94.816 131.641,94.337 130.803 C 93.858 129.966,93.204 128.522,92.885 127.594 C 92.566 126.667,91.969 125.335,91.559 124.635 C 91.149 123.935,90.480 122.474,90.073 121.388 C 89.666 120.302,89.075 119.138,88.761 118.800 C 88.446 118.463,87.816 117.302,87.359 116.220 C 86.903 115.138,86.236 113.897,85.878 113.463 C 85.519 113.029,84.900 111.949,84.502 111.062 C 84.104 110.176,83.476 109.121,83.108 108.718 C 82.739 108.315,82.130 107.458,81.753 106.813 C 81.041 105.595,79.363 103.586,77.306 101.490 C 76.180 100.343,76.118 100.189,76.260 98.926 C 76.518 96.636,77.035 96.433,81.433 96.893 M312.180 98.189 C 313.277 98.494,314.432 99.372,314.432 99.902 C 314.432 100.049,313.749 100.714,312.913 101.379 C 312.078 102.044,309.597 104.300,307.401 106.393 C 305.205 108.485,303.116 110.401,302.760 110.651 C 302.403 110.900,301.730 111.861,301.263 112.786 C 300.796 113.711,300.195 114.649,299.927 114.872 C 299.659 115.094,299.065 116.017,298.608 116.923 C 298.151 117.829,297.547 118.760,297.267 118.992 C 296.986 119.224,296.405 120.157,295.975 121.066 C 295.545 121.974,294.775 123.246,294.263 123.892 C 293.752 124.538,293.333 125.204,293.333 125.373 C 293.333 125.541,292.608 126.739,291.722 128.033 C 290.835 129.327,290.110 130.521,290.110 130.687 C 290.110 130.852,289.665 131.482,289.122 132.087 C 288.578 132.692,287.714 133.978,287.200 134.945 C 286.687 135.912,285.846 137.312,285.331 138.057 C 284.817 138.801,284.165 139.790,283.882 140.255 C 283.600 140.719,283.073 141.515,282.710 142.024 C 282.348 142.532,281.684 143.587,281.235 144.368 C 280.213 146.144,279.384 147.387,278.176 148.956 C 277.656 149.631,276.749 150.908,276.160 151.795 C 275.570 152.681,274.644 153.901,274.101 154.506 C 273.558 155.111,273.114 155.737,273.114 155.897 C 273.114 156.058,272.676 156.684,272.142 157.289 C 271.608 157.893,270.824 158.992,270.401 159.730 C 269.977 160.468,269.412 161.254,269.145 161.476 C 268.877 161.698,268.220 162.566,267.683 163.404 C 266.652 165.016,265.976 165.793,261.978 169.964 C 260.608 171.393,258.696 173.503,257.729 174.653 C 256.762 175.803,255.443 177.296,254.799 177.971 C 254.154 178.646,252.744 180.120,251.666 181.247 C 250.588 182.375,249.034 183.890,248.212 184.615 C 247.390 185.341,246.075 186.527,245.289 187.253 C 244.503 187.978,242.981 189.363,241.907 190.330 C 240.833 191.297,239.602 192.433,239.171 192.854 C 238.741 193.275,237.663 194.104,236.777 194.696 C 233.711 196.743,232.230 197.779,231.062 198.690 C 230.418 199.193,229.297 199.995,228.571 200.471 C 226.411 201.891,224.398 203.297,223.116 204.283 C 222.452 204.793,221.173 205.509,220.274 205.875 C 219.374 206.241,218.194 206.880,217.651 207.294 C 217.107 207.708,216.094 208.248,215.399 208.493 C 214.704 208.738,213.442 209.336,212.595 209.820 C 211.620 210.378,209.835 210.969,207.726 211.431 C 205.894 211.833,203.670 212.483,202.784 212.875 C 199.842 214.178,182.664 215.985,177.143 215.573 C 166.608 214.787,159.412 213.826,156.826 212.862 C 155.806 212.481,153.508 211.840,151.719 211.437 C 149.727 210.988,148.035 210.419,147.353 209.967 C 146.740 209.562,145.347 208.894,144.256 208.484 C 143.166 208.074,141.944 207.436,141.540 207.067 C 141.136 206.698,140.185 206.042,139.425 205.610 C 138.666 205.178,137.941 204.648,137.814 204.433 C 137.686 204.217,136.999 203.676,136.286 203.230 C 134.050 201.831,129.294 197.567,120.688 189.245 C 118.738 187.360,118.667 187.243,118.912 186.315 C 119.204 185.205,119.050 185.222,123.516 185.790 C 130.331 186.655,140.494 186.112,143.590 184.717 C 144.476 184.318,146.697 183.607,148.525 183.138 C 150.353 182.669,152.265 182.029,152.774 181.716 C 153.283 181.402,154.938 180.798,156.452 180.374 C 157.966 179.949,159.826 179.286,160.586 178.901 C 161.346 178.516,163.192 177.857,164.689 177.436 C 166.185 177.015,168.017 176.364,168.760 175.989 C 169.502 175.613,170.967 175.075,172.015 174.792 C 173.062 174.510,174.666 173.909,175.578 173.457 C 176.490 173.006,178.403 172.317,179.829 171.926 C 181.255 171.535,183.091 170.866,183.909 170.438 C 184.727 170.010,186.375 169.390,187.570 169.060 C 188.765 168.730,190.337 168.130,191.062 167.725 C 191.788 167.321,193.497 166.666,194.860 166.270 C 196.224 165.875,197.876 165.237,198.531 164.853 C 199.186 164.469,200.865 163.824,202.261 163.419 C 203.657 163.014,205.368 162.358,206.063 161.961 C 206.758 161.564,208.227 160.956,209.328 160.608 C 210.429 160.261,211.818 159.654,212.414 159.259 C 213.011 158.864,214.316 158.221,215.315 157.829 C 216.314 157.438,217.514 156.845,217.981 156.513 C 218.449 156.180,219.891 155.461,221.186 154.914 C 222.481 154.368,223.914 153.659,224.371 153.339 C 224.828 153.019,225.993 152.466,226.960 152.111 C 227.927 151.756,229.198 151.136,229.785 150.734 C 230.372 150.331,231.846 149.630,233.061 149.177 C 234.277 148.724,235.606 148.089,236.016 147.767 C 236.426 147.444,237.523 146.878,238.454 146.507 C 239.385 146.137,240.478 145.606,240.882 145.328 C 241.287 145.049,242.738 144.277,244.106 143.611 C 245.474 142.945,247.912 141.692,249.524 140.826 C 253.260 138.819,256.839 136.934,259.649 135.494 C 260.866 134.870,262.256 134.073,262.739 133.723 C 263.221 133.373,264.400 132.739,265.358 132.316 C 266.316 131.892,267.367 131.295,267.692 130.989 C 268.018 130.683,269.068 130.086,270.026 129.663 C 270.984 129.239,272.236 128.525,272.807 128.077 C 273.379 127.628,274.445 126.999,275.177 126.678 C 275.908 126.357,277.177 125.613,277.996 125.025 C 278.814 124.437,279.628 123.956,279.805 123.956 C 279.982 123.956,280.575 123.562,281.123 123.081 C 282.251 122.090,284.164 120.703,286.740 119.008 C 287.707 118.372,288.960 117.462,289.524 116.987 C 290.088 116.511,291.086 115.850,291.741 115.518 C 292.397 115.186,293.111 114.700,293.328 114.438 C 293.546 114.176,294.592 113.446,295.653 112.815 C 297.925 111.466,300.232 108.961,301.479 106.492 C 301.969 105.521,302.589 104.545,302.857 104.322 C 303.125 104.100,303.717 103.185,304.173 102.289 C 306.017 98.663,308.784 97.246,312.180 98.189 " stroke="none" fill="#fbfbfb" fill-rule="evenodd"></path></g></svg>