<svg id="svg" version="1.1" xmlns="http://www.w3.org/2000/svg" xmlns:xlink="http://www.w3.org/1999/xlink" width="400" height="346.45669291338584" viewBox="0, 0, 400,346.45669291338584"><g id="svgg"><path id="path0" d="M296.880 58.933 C 288.507 59.659,283.632 60.392,280.763 61.357 C 279.142 61.901,276.056 62.675,273.905 63.075 C 270.180 63.769,268.302 64.339,268.269 64.787 C 268.261 64.899,268.128 65.640,267.975 66.433 C 267.654 68.089,267.634 68.073,271.916 69.545 C 273.246 70.002,274.884 70.739,275.556 71.183 C 276.227 71.627,277.554 72.334,278.505 72.754 C 279.456 73.174,280.548 73.805,280.932 74.155 C 281.315 74.506,282.487 75.222,283.536 75.747 C 284.584 76.271,285.984 77.146,286.647 77.691 C 287.310 78.237,288.023 78.683,288.231 78.683 C 288.440 78.683,289.223 79.198,289.972 79.828 C 290.721 80.459,291.880 81.345,292.548 81.798 C 293.722 82.595,294.787 83.474,298.764 86.926 C 300.947 88.821,301.465 89.346,303.813 92.045 C 304.766 93.140,305.945 94.443,306.434 94.939 C 306.922 95.435,307.974 96.806,308.772 97.985 C 309.569 99.165,310.381 100.229,310.575 100.349 C 310.769 100.469,311.260 101.216,311.664 102.010 C 312.069 102.803,312.824 104.001,313.341 104.672 C 313.859 105.343,314.637 106.748,315.072 107.794 C 315.506 108.840,316.216 110.166,316.651 110.741 C 317.085 111.315,317.627 112.484,317.854 113.339 C 319.038 117.787,319.365 118.051,321.514 116.291 C 323.114 114.980,323.609 113.852,324.638 109.185 C 324.953 107.756,325.566 105.728,326.001 104.679 C 326.767 102.830,327.015 101.570,328.614 91.369 C 330.704 78.037,327.395 66.544,320.451 63.017 C 319.688 62.629,318.596 61.964,318.024 61.538 C 315.297 59.507,304.955 58.233,296.880 58.933 M247.525 72.124 C 246.116 72.488,244.244 73.194,243.365 73.693 C 242.487 74.192,240.692 74.971,239.378 75.424 C 235.274 76.841,232.929 78.600,232.929 80.261 C 232.929 80.892,234.709 82.789,247.858 96.172 C 265.928 114.563,295.437 144.813,300.200 149.827 C 302.146 151.876,303.896 153.553,304.089 153.553 C 305.020 153.553,308.070 149.846,308.651 148.007 C 308.983 146.958,309.684 145.477,310.210 144.714 C 310.735 143.951,311.441 142.470,311.779 141.421 C 312.116 140.373,312.762 139.019,313.213 138.414 C 314.909 136.140,314.993 132.749,313.461 128.446 C 313.184 127.671,312.510 125.295,311.963 123.166 C 311.415 121.038,310.583 118.698,310.113 117.967 C 309.643 117.236,308.998 115.824,308.678 114.829 C 308.359 113.835,307.485 112.119,306.736 111.016 C 305.987 109.914,305.374 108.845,305.373 108.641 C 305.373 108.437,304.860 107.657,304.234 106.908 C 303.607 106.159,302.805 105.078,302.451 104.506 C 301.299 102.645,298.076 98.848,294.905 95.616 C 292.040 92.696,290.383 91.287,285.999 88.042 C 285.098 87.374,283.851 86.399,283.228 85.875 C 282.605 85.351,281.909 84.922,281.681 84.922 C 281.454 84.922,280.725 84.476,280.062 83.930 C 279.399 83.384,277.852 82.431,276.624 81.812 C 275.397 81.193,273.993 80.394,273.505 80.037 C 273.016 79.680,271.683 79.069,270.542 78.679 C 269.401 78.290,267.919 77.598,267.249 77.142 C 266.579 76.687,264.861 75.971,263.432 75.553 C 262.002 75.134,260.102 74.422,259.210 73.970 C 257.987 73.352,250.484 71.252,250.143 71.434 C 250.112 71.450,248.934 71.761,247.525 72.124 M220.277 87.155 C 218.822 88.047,214.898 91.869,203.356 103.640 C 202.514 104.497,201.552 105.745,201.218 106.412 C 200.883 107.080,200.372 107.897,200.081 108.228 C 199.454 108.944,202.035 110.312,204.853 110.756 C 205.711 110.892,207.189 111.394,208.139 111.873 C 209.089 112.353,211.251 113.115,212.943 113.568 C 214.636 114.021,216.432 114.683,216.936 115.038 C 217.439 115.394,219.020 116.104,220.449 116.618 C 221.878 117.131,223.287 117.768,223.580 118.033 C 223.872 118.298,225.300 119.056,226.751 119.717 C 228.203 120.379,229.497 121.091,229.626 121.301 C 229.755 121.510,230.902 122.224,232.175 122.888 C 234.475 124.089,237.054 125.763,238.943 127.282 C 239.486 127.719,240.603 128.544,241.423 129.116 C 246.060 132.347,255.359 141.442,258.346 145.667 C 259.121 146.763,259.874 147.660,260.019 147.660 C 260.164 147.660,260.705 148.401,261.221 149.307 C 261.736 150.212,262.506 151.343,262.932 151.820 C 263.357 152.296,264.177 153.632,264.753 154.787 C 265.330 155.942,266.042 157.087,266.336 157.331 C 266.631 157.576,267.200 158.658,267.602 159.737 C 268.003 160.816,268.784 162.406,269.336 163.270 C 269.889 164.135,270.658 165.871,271.046 167.128 C 271.435 168.385,272.127 170.095,272.585 170.929 C 273.043 171.762,273.734 173.614,274.120 175.043 C 275.216 179.095,276.890 183.186,277.805 184.045 L 278.638 184.827 280.480 183.230 C 281.493 182.352,283.258 180.580,284.402 179.293 C 285.546 178.006,288.403 175.029,290.750 172.678 C 296.241 167.181,297.268 165.827,297.560 163.704 C 298.032 160.271,298.008 160.240,283.626 145.602 C 280.149 142.064,274.923 136.691,272.014 133.663 C 258.147 119.232,228.937 89.632,226.690 87.734 C 224.484 85.870,222.644 85.704,220.277 87.155 M188.539 118.710 C 187.312 119.804,186.075 121.052,185.789 121.482 C 185.503 121.912,182.617 124.928,179.376 128.184 C 176.135 131.440,171.693 135.919,169.505 138.139 C 167.316 140.359,165.250 142.323,164.912 142.503 C 164.137 142.918,164.031 146.314,164.774 146.930 C 165.035 147.147,166.634 147.628,168.327 147.999 C 171.717 148.740,173.471 149.288,174.523 149.933 C 174.905 150.166,176.537 150.778,178.150 151.291 C 179.764 151.804,181.515 152.531,182.042 152.907 C 182.569 153.282,184.121 153.970,185.493 154.437 C 186.864 154.903,188.241 155.516,188.554 155.799 C 188.866 156.081,190.384 156.930,191.927 157.684 C 193.470 158.438,194.837 159.224,194.965 159.431 C 195.093 159.638,196.111 160.268,197.227 160.832 C 198.343 161.395,199.353 162.012,199.471 162.203 C 199.589 162.394,200.650 163.116,201.830 163.807 C 203.009 164.499,204.313 165.399,204.726 165.808 C 205.140 166.217,206.448 167.331,207.633 168.284 C 212.116 171.892,221.712 181.869,223.639 184.927 C 224.121 185.692,224.782 186.540,225.108 186.810 C 225.434 187.081,226.019 187.936,226.408 188.712 C 226.797 189.487,227.527 190.656,228.029 191.310 C 229.043 192.629,230.642 195.533,232.244 198.960 C 232.823 200.199,233.818 202.227,234.456 203.466 C 235.094 204.705,235.942 206.910,236.340 208.365 C 236.738 209.820,237.390 211.563,237.788 212.239 C 238.187 212.914,238.820 214.992,239.195 216.858 C 240.083 221.273,240.551 222.036,241.934 221.321 C 242.491 221.033,243.118 220.797,243.327 220.797 C 243.637 220.797,253.050 211.485,255.387 208.866 C 255.741 208.470,257.188 207.036,258.604 205.680 C 267.692 196.978,269.245 194.662,268.674 190.661 C 267.944 185.547,266.876 180.809,266.208 179.725 C 265.855 179.152,265.173 177.136,264.694 175.245 C 264.215 173.354,263.487 171.354,263.078 170.800 C 262.668 170.246,261.958 168.690,261.500 167.343 C 261.042 165.996,260.305 164.409,259.862 163.816 C 259.419 163.223,258.840 162.203,258.576 161.549 C 258.312 160.895,257.589 159.695,256.968 158.882 C 256.347 158.069,255.531 156.799,255.155 156.061 C 254.778 155.323,254.203 154.498,253.878 154.228 C 253.552 153.958,252.897 153.122,252.423 152.371 C 249.752 148.139,244.033 142.217,238.002 137.435 C 236.319 136.101,234.219 134.424,233.335 133.709 C 232.451 132.994,231.588 132.409,231.417 132.409 C 231.246 132.409,230.357 131.871,229.442 131.214 C 228.528 130.557,226.949 129.604,225.935 129.096 C 224.920 128.589,223.778 127.890,223.397 127.544 C 223.016 127.199,221.612 126.510,220.277 126.014 C 218.943 125.517,217.444 124.815,216.947 124.454 C 216.450 124.092,214.657 123.375,212.961 122.861 C 211.266 122.346,209.255 121.569,208.492 121.133 C 207.730 120.698,205.858 120.070,204.333 119.738 C 202.808 119.406,200.266 118.687,198.684 118.140 C 197.103 117.593,194.675 117.050,193.289 116.933 L 190.769 116.720 188.539 118.710 M153.726 154.924 C 152.869 155.333,150.552 157.480,147.660 160.543 C 145.087 163.270,140.114 168.366,136.610 171.867 C 127.897 180.574,127.663 181.558,134.018 182.798 C 135.707 183.128,138.102 183.852,139.341 184.407 C 140.581 184.962,142.530 185.673,143.674 185.987 C 144.818 186.301,146.534 186.996,147.487 187.531 C 148.440 188.066,150.156 188.829,151.300 189.228 C 152.444 189.626,153.779 190.246,154.268 190.606 C 154.757 190.965,156.005 191.614,157.041 192.047 C 158.077 192.480,159.549 193.285,160.312 193.836 C 161.537 194.721,162.648 195.436,166.503 197.826 C 167.048 198.164,167.930 198.752,168.462 199.133 C 168.994 199.515,170.084 200.295,170.884 200.867 C 174.880 203.724,184.122 212.619,186.462 215.858 C 187.047 216.668,187.652 217.331,187.807 217.331 C 187.961 217.331,188.421 217.924,188.828 218.649 C 189.235 219.374,189.888 220.256,190.279 220.610 C 190.669 220.963,191.538 222.235,192.210 223.436 C 192.882 224.637,193.587 225.716,193.777 225.833 C 193.967 225.951,194.593 226.933,195.168 228.015 C 195.743 229.097,196.588 230.498,197.045 231.129 C 197.503 231.759,198.145 233.085,198.471 234.075 C 198.797 235.065,199.436 236.421,199.889 237.088 C 200.343 237.756,201.119 239.627,201.613 241.248 C 202.107 242.868,202.873 244.818,203.315 245.581 C 203.770 246.365,204.374 248.396,204.708 250.260 C 205.465 254.486,205.942 255.459,207.260 255.459 C 207.811 255.459,208.502 255.551,208.796 255.664 C 209.337 255.872,218.278 247.120,228.330 236.542 L 232.917 231.716 232.923 229.919 C 232.930 227.892,232.177 223.975,231.394 221.964 C 231.107 221.227,230.485 219.032,230.011 217.085 C 229.537 215.139,228.904 213.073,228.604 212.494 C 228.305 211.915,227.593 210.175,227.022 208.627 C 226.452 207.080,225.697 205.448,225.345 205.000 C 224.993 204.552,224.344 203.205,223.902 202.006 C 223.461 200.808,222.729 199.375,222.274 198.822 C 221.820 198.269,221.006 196.943,220.465 195.876 C 219.924 194.808,218.998 193.328,218.406 192.587 C 217.815 191.846,217.331 191.110,217.331 190.952 C 217.331 190.794,216.629 189.874,215.771 188.908 C 214.913 187.942,214.211 187.036,214.211 186.894 C 214.211 186.414,207.127 179.330,203.466 176.149 C 198.107 171.493,197.538 171.045,195.973 170.253 C 195.189 169.856,194.097 169.154,193.547 168.695 C 192.997 168.235,191.846 167.508,190.988 167.079 C 190.130 166.650,189.096 165.996,188.691 165.625 C 188.285 165.254,186.829 164.493,185.455 163.934 C 184.081 163.374,182.535 162.616,182.019 162.249 C 181.503 161.882,179.995 161.234,178.669 160.811 C 177.342 160.387,175.399 159.615,174.350 159.094 C 173.302 158.574,170.962 157.804,169.151 157.383 C 167.340 156.963,165.156 156.306,164.298 155.922 C 160.974 154.437,155.774 153.946,153.726 154.924 M119.579 189.900 C 118.724 190.456,114.700 194.320,110.636 198.488 C 106.573 202.656,101.082 208.270,98.435 210.965 L 93.621 215.864 93.973 217.140 C 94.523 219.128,95.192 219.539,99.286 220.398 C 101.359 220.833,103.927 221.624,104.994 222.156 C 106.060 222.688,108.100 223.474,109.528 223.902 C 110.955 224.330,112.515 224.957,112.994 225.296 C 113.473 225.634,115.073 226.413,116.550 227.026 C 118.028 227.639,119.333 228.297,119.451 228.488 C 119.569 228.679,120.680 229.290,121.919 229.846 C 123.159 230.402,124.641 231.251,125.213 231.733 C 125.785 232.214,126.753 232.817,127.363 233.072 C 127.974 233.327,129.008 233.994,129.661 234.555 C 130.315 235.116,131.473 235.944,132.236 236.394 C 132.998 236.845,134.208 237.732,134.923 238.364 C 135.638 238.997,136.377 239.515,136.563 239.515 C 137.138 239.515,145.695 247.827,149.408 251.993 C 152.969 255.988,153.250 256.364,156.499 261.491 C 157.071 262.393,158.047 263.898,158.667 264.836 C 159.288 265.773,160.180 267.408,160.649 268.469 C 161.118 269.530,161.822 270.847,162.213 271.397 C 162.604 271.946,163.324 273.459,163.812 274.759 C 164.301 276.059,164.995 277.602,165.356 278.188 C 165.717 278.774,166.384 280.645,166.840 282.347 C 167.295 284.049,167.997 286.163,168.398 287.045 C 168.800 287.927,169.236 289.316,169.366 290.132 C 169.505 291.004,169.995 292.054,170.554 292.679 C 171.873 294.156,172.044 294.035,179.740 286.182 C 183.315 282.534,189.024 276.708,192.427 273.235 L 198.614 266.920 198.612 264.743 C 198.611 261.780,197.701 256.799,196.721 254.387 C 196.277 253.294,195.646 251.335,195.320 250.033 C 194.994 248.732,194.297 246.808,193.772 245.757 C 193.247 244.707,192.472 242.796,192.049 241.512 C 191.626 240.227,191.121 239.077,190.926 238.956 C 190.730 238.836,189.987 237.469,189.274 235.920 C 188.561 234.370,187.724 232.892,187.413 232.635 C 187.102 232.377,186.445 231.285,185.953 230.208 C 185.461 229.131,184.617 227.782,184.078 227.210 C 183.540 226.638,182.900 225.780,182.656 225.303 C 181.167 222.389,167.806 209.087,164.814 207.540 C 164.244 207.245,163.465 206.659,163.084 206.238 C 162.703 205.817,161.798 205.169,161.073 204.799 C 160.348 204.429,159.049 203.588,158.187 202.930 C 157.325 202.272,156.418 201.733,156.173 201.733 C 155.927 201.733,154.808 201.109,153.686 200.347 C 152.564 199.585,150.867 198.709,149.913 198.400 C 148.960 198.092,147.478 197.408,146.620 196.880 C 145.763 196.353,144.203 195.647,143.154 195.313 C 142.106 194.978,140.390 194.278,139.341 193.757 C 138.293 193.236,135.954 192.464,134.143 192.042 C 132.332 191.619,130.183 190.969,129.366 190.597 C 127.956 189.955,126.232 189.567,122.699 189.098 C 121.358 188.920,120.912 189.034,119.579 189.900 M76.147 233.804 C 64.886 245.247,64.571 245.874,68.042 249.913 C 70.501 252.775,78.014 260.622,85.104 267.733 C 89.302 271.944,93.971 276.716,95.478 278.336 C 98.043 281.095,109.096 292.372,128.222 311.745 C 141.804 325.502,140.806 325.276,149.875 316.638 C 161.578 305.490,163.198 303.077,161.937 298.664 C 161.548 297.302,160.971 294.705,160.654 292.894 C 160.338 291.083,159.638 288.588,159.098 287.348 C 158.558 286.109,157.861 284.081,157.549 282.842 C 157.237 281.603,156.541 279.869,156.004 278.990 C 155.466 278.110,154.762 276.594,154.439 275.621 C 154.116 274.649,153.239 272.951,152.490 271.848 C 151.741 270.746,151.128 269.670,151.127 269.458 C 151.127 269.246,150.643 268.466,150.052 267.725 C 149.460 266.984,148.591 265.618,148.118 264.690 C 147.646 263.762,146.903 262.670,146.466 262.264 C 146.029 261.857,145.351 260.996,144.960 260.350 C 144.568 259.704,142.948 257.771,141.361 256.054 C 138.133 252.564,138.412 252.844,135.648 250.308 C 134.534 249.286,133.076 247.930,132.409 247.294 C 131.117 246.062,129.907 245.146,126.882 243.106 C 125.844 242.406,124.326 241.323,123.509 240.700 C 122.693 240.076,121.674 239.455,121.246 239.319 C 120.817 239.183,119.752 238.580,118.879 237.979 C 118.005 237.378,116.520 236.599,115.578 236.248 C 114.636 235.897,113.396 235.261,112.822 234.835 C 112.249 234.410,110.655 233.656,109.280 233.160 C 107.906 232.664,106.028 231.877,105.107 231.410 C 104.186 230.944,102.115 230.248,100.503 229.865 C 98.892 229.482,96.794 228.831,95.841 228.418 C 93.677 227.482,87.951 226.343,85.407 226.343 L 83.490 226.343 76.147 233.804 " stroke="none" fill="#0b0b0b" fill-rule="evenodd"></path><path id="path1" d="M0.000 173.310 L 0.000 346.620 200.000 346.620 L 400.000 346.620 400.000 173.310 L 400.000 0.000 200.000 0.000 L 0.000 0.000 0.000 173.310 M311.196 59.468 C 315.201 60.068,316.633 60.502,318.024 61.538 C 318.596 61.964,319.688 62.629,320.451 63.017 C 327.395 66.544,330.704 78.037,328.614 91.369 C 327.015 101.570,326.767 102.830,326.001 104.679 C 325.566 105.728,324.953 107.756,324.638 109.185 C 323.609 113.852,323.114 114.980,321.514 116.291 C 319.365 118.051,319.038 117.787,317.854 113.339 C 317.627 112.484,317.085 111.315,316.651 110.741 C 316.216 110.166,315.506 108.840,315.072 107.794 C 314.637 106.748,313.859 105.343,313.341 104.672 C 312.824 104.001,312.069 102.803,311.664 102.010 C 311.260 101.216,310.769 100.469,310.575 100.349 C 310.381 100.229,309.569 99.165,308.772 97.985 C 307.974 96.806,306.922 95.435,306.434 94.939 C 305.945 94.443,304.766 93.140,303.813 92.045 C 301.465 89.346,300.947 88.821,298.764 86.926 C 294.787 83.474,293.722 82.595,292.548 81.798 C 291.880 81.345,290.721 80.459,289.972 79.828 C 289.223 79.198,288.440 78.683,288.231 78.683 C 288.023 78.683,287.310 78.237,286.647 77.691 C 285.984 77.146,284.584 76.271,283.536 75.747 C 282.487 75.222,281.315 74.506,280.932 74.155 C 280.548 73.805,279.456 73.174,278.505 72.754 C 277.554 72.334,276.227 71.627,275.556 71.183 C 274.884 70.739,273.246 70.002,271.916 69.545 C 267.634 68.073,267.654 68.089,267.975 66.433 C 268.128 65.640,268.261 64.899,268.269 64.787 C 268.302 64.339,270.180 63.769,273.905 63.075 C 276.056 62.675,279.142 61.901,280.763 61.357 C 283.632 60.392,288.507 59.659,296.880 58.933 C 301.035 58.573,306.604 58.781,311.196 59.468 M253.893 72.277 C 255.925 72.757,258.317 73.519,259.210 73.970 C 260.102 74.422,262.002 75.134,263.432 75.553 C 264.861 75.971,266.579 76.687,267.249 77.142 C 267.919 77.598,269.401 78.290,270.542 78.679 C 271.683 79.069,273.016 79.680,273.505 80.037 C 273.993 80.394,275.397 81.193,276.624 81.812 C 277.852 82.431,279.399 83.384,280.062 83.930 C 280.725 84.476,281.454 84.922,281.681 84.922 C 281.909 84.922,282.605 85.351,283.228 85.875 C 283.851 86.399,285.098 87.374,285.999 88.042 C 290.383 91.287,292.040 92.696,294.905 95.616 C 298.076 98.848,301.299 102.645,302.451 104.506 C 302.805 105.078,303.607 106.159,304.234 106.908 C 304.860 107.657,305.373 108.437,305.373 108.641 C 305.374 108.845,305.987 109.914,306.736 111.016 C 307.485 112.119,308.359 113.835,308.678 114.829 C 308.998 115.824,309.643 117.236,310.113 117.967 C 310.583 118.698,311.415 121.038,311.963 123.166 C 312.510 125.295,313.184 127.671,313.461 128.446 C 314.993 132.749,314.909 136.140,313.213 138.414 C 312.762 139.019,312.116 140.373,311.779 141.421 C 311.441 142.470,310.735 143.951,310.210 144.714 C 309.684 145.477,308.983 146.958,308.651 148.007 C 308.070 149.846,305.020 153.553,304.089 153.553 C 303.896 153.553,302.146 151.876,300.200 149.827 C 295.437 144.813,265.928 114.563,247.858 96.172 C 234.709 82.789,232.929 80.892,232.929 80.261 C 232.929 78.600,235.274 76.841,239.378 75.424 C 240.692 74.971,242.487 74.192,243.365 73.693 C 244.244 73.194,246.116 72.488,247.525 72.124 C 248.934 71.761,250.112 71.450,250.143 71.434 C 250.173 71.417,251.861 71.797,253.893 72.277 M226.690 87.734 C 228.937 89.632,258.147 119.232,272.014 133.663 C 274.923 136.691,280.149 142.064,283.626 145.602 C 298.008 160.240,298.032 160.271,297.560 163.704 C 297.268 165.827,296.241 167.181,290.750 172.678 C 288.403 175.029,285.546 178.006,284.402 179.293 C 283.258 180.580,281.493 182.352,280.480 183.230 L 278.638 184.827 277.805 184.045 C 276.890 183.186,275.216 179.095,274.120 175.043 C 273.734 173.614,273.043 171.762,272.585 170.929 C 272.127 170.095,271.435 168.385,271.046 167.128 C 270.658 165.871,269.889 164.135,269.336 163.270 C 268.784 162.406,268.003 160.816,267.602 159.737 C 267.200 158.658,266.631 157.576,266.336 157.331 C 266.042 157.087,265.330 155.942,264.753 154.787 C 264.177 153.632,263.357 152.296,262.932 151.820 C 262.506 151.343,261.736 150.212,261.221 149.307 C 260.705 148.401,260.164 147.660,260.019 147.660 C 259.874 147.660,259.121 146.763,258.346 145.667 C 255.359 141.442,246.060 132.347,241.423 129.116 C 240.603 128.544,239.486 127.719,238.943 127.282 C 237.054 125.763,234.475 124.089,232.175 122.888 C 230.902 122.224,229.755 121.510,229.626 121.301 C 229.497 121.091,228.203 120.379,226.751 119.717 C 225.300 119.056,223.872 118.298,223.580 118.033 C 223.287 117.768,221.878 117.131,220.449 116.618 C 219.020 116.104,217.439 115.394,216.936 115.038 C 216.432 114.683,214.636 114.021,212.943 113.568 C 211.251 113.115,209.089 112.353,208.139 111.873 C 207.189 111.394,205.711 110.892,204.853 110.756 C 202.035 110.312,199.454 108.944,200.081 108.228 C 200.372 107.897,200.883 107.080,201.218 106.412 C 201.552 105.745,202.514 104.497,203.356 103.640 C 222.255 84.368,222.504 84.198,226.690 87.734 M198.684 118.140 C 200.266 118.687,202.808 119.406,204.333 119.738 C 205.858 120.070,207.730 120.698,208.492 121.133 C 209.255 121.569,211.266 122.346,212.961 122.861 C 214.657 123.375,216.450 124.092,216.947 124.454 C 217.444 124.815,218.943 125.517,220.277 126.014 C 221.612 126.510,223.016 127.199,223.397 127.544 C 223.778 127.890,224.920 128.589,225.935 129.096 C 226.949 129.604,228.528 130.557,229.442 131.214 C 230.357 131.871,231.246 132.409,231.417 132.409 C 231.588 132.409,232.451 132.994,233.335 133.709 C 234.219 134.424,236.319 136.101,238.002 137.435 C 244.033 142.217,249.752 148.139,252.423 152.371 C 252.897 153.122,253.552 153.958,253.878 154.228 C 254.203 154.498,254.778 155.323,255.155 156.061 C 255.531 156.799,256.347 158.069,256.968 158.882 C 257.589 159.695,258.312 160.895,258.576 161.549 C 258.840 162.203,259.419 163.223,259.862 163.816 C 260.305 164.409,261.042 165.996,261.500 167.343 C 261.958 168.690,262.668 170.246,263.078 170.800 C 263.487 171.354,264.215 173.354,264.694 175.245 C 265.173 177.136,265.855 179.152,266.208 179.725 C 266.876 180.809,267.944 185.547,268.674 190.661 C 269.245 194.662,267.692 196.978,258.604 205.680 C 257.188 207.036,255.741 208.470,255.387 208.866 C 253.050 211.485,243.637 220.797,243.327 220.797 C 243.118 220.797,242.491 221.033,241.934 221.321 C 240.551 222.036,240.083 221.273,239.195 216.858 C 238.820 214.992,238.187 212.914,237.788 212.239 C 237.390 211.563,236.738 209.820,236.340 208.365 C 235.942 206.910,235.094 204.705,234.456 203.466 C 233.818 202.227,232.823 200.199,232.244 198.960 C 230.642 195.533,229.043 192.629,228.029 191.310 C 227.527 190.656,226.797 189.487,226.408 188.712 C 226.019 187.936,225.434 187.081,225.108 186.810 C 224.782 186.540,224.121 185.692,223.639 184.927 C 221.712 181.869,212.116 171.892,207.633 168.284 C 206.448 167.331,205.140 166.217,204.726 165.808 C 204.313 165.399,203.009 164.499,201.830 163.807 C 200.650 163.116,199.589 162.394,199.471 162.203 C 199.353 162.012,198.343 161.395,197.227 160.832 C 196.111 160.268,195.093 159.638,194.965 159.431 C 194.837 159.224,193.470 158.438,191.927 157.684 C 190.384 156.930,188.866 156.081,188.554 155.799 C 188.241 155.516,186.864 154.903,185.493 154.437 C 184.121 153.970,182.569 153.282,182.042 152.907 C 181.515 152.531,179.764 151.804,178.150 151.291 C 176.537 150.778,174.905 150.166,174.523 149.933 C 173.471 149.288,171.717 148.740,168.327 147.999 C 166.634 147.628,165.035 147.147,164.774 146.930 C 164.031 146.314,164.137 142.918,164.912 142.503 C 165.250 142.323,167.316 140.359,169.505 138.139 C 171.693 135.919,176.135 131.440,179.376 128.184 C 182.617 124.928,185.503 121.912,185.789 121.482 C 186.075 121.052,187.312 119.804,188.539 118.710 L 190.769 116.720 193.289 116.933 C 194.675 117.050,197.103 117.593,198.684 118.140 M159.792 154.737 C 161.412 155.005,163.440 155.539,164.298 155.922 C 165.156 156.306,167.340 156.963,169.151 157.383 C 170.962 157.804,173.302 158.574,174.350 159.094 C 175.399 159.615,177.342 160.387,178.669 160.811 C 179.995 161.234,181.503 161.882,182.019 162.249 C 182.535 162.616,184.081 163.374,185.455 163.934 C 186.829 164.493,188.285 165.254,188.691 165.625 C 189.096 165.996,190.130 166.650,190.988 167.079 C 191.846 167.508,192.997 168.235,193.547 168.695 C 194.097 169.154,195.189 169.856,195.973 170.253 C 197.538 171.045,198.107 171.493,203.466 176.149 C 207.127 179.330,214.211 186.414,214.211 186.894 C 214.211 187.036,214.913 187.942,215.771 188.908 C 216.629 189.874,217.331 190.794,217.331 190.952 C 217.331 191.110,217.815 191.846,218.406 192.587 C 218.998 193.328,219.924 194.808,220.465 195.876 C 221.006 196.943,221.820 198.269,222.274 198.822 C 222.729 199.375,223.461 200.808,223.902 202.006 C 224.344 203.205,224.993 204.552,225.345 205.000 C 225.697 205.448,226.452 207.080,227.022 208.627 C 227.593 210.175,228.305 211.915,228.604 212.494 C 228.904 213.073,229.537 215.139,230.011 217.085 C 230.485 219.032,231.107 221.227,231.394 221.964 C 232.177 223.975,232.930 227.892,232.923 229.919 L 232.917 231.716 228.330 236.542 C 218.278 247.120,209.337 255.872,208.796 255.664 C 208.502 255.551,207.811 255.459,207.260 255.459 C 205.942 255.459,205.465 254.486,204.708 250.260 C 204.374 248.396,203.770 246.365,203.315 245.581 C 202.873 244.818,202.107 242.868,201.613 241.248 C 201.119 239.627,200.343 237.756,199.889 237.088 C 199.436 236.421,198.797 235.065,198.471 234.075 C 198.145 233.085,197.503 231.759,197.045 231.129 C 196.588 230.498,195.743 229.097,195.168 228.015 C 194.593 226.933,193.967 225.951,193.777 225.833 C 193.587 225.716,192.882 224.637,192.210 223.436 C 191.538 222.235,190.669 220.963,190.279 220.610 C 189.888 220.256,189.235 219.374,188.828 218.649 C 188.421 217.924,187.961 217.331,187.807 217.331 C 187.652 217.331,187.047 216.668,186.462 215.858 C 184.122 212.619,174.880 203.724,170.884 200.867 C 170.084 200.295,168.994 199.515,168.462 199.133 C 167.930 198.752,167.048 198.164,166.503 197.826 C 162.648 195.436,161.537 194.721,160.312 193.836 C 159.549 193.285,158.077 192.480,157.041 192.047 C 156.005 191.614,154.757 190.965,154.268 190.606 C 153.779 190.246,152.444 189.626,151.300 189.228 C 150.156 188.829,148.440 188.066,147.487 187.531 C 146.534 186.996,144.818 186.301,143.674 185.987 C 142.530 185.673,140.581 184.962,139.341 184.407 C 138.102 183.852,135.707 183.128,134.018 182.798 C 127.663 181.558,127.897 180.574,136.610 171.867 C 140.114 168.366,145.087 163.270,147.660 160.543 C 153.824 154.013,154.236 153.816,159.792 154.737 M126.072 189.613 C 127.066 189.782,128.548 190.225,129.366 190.597 C 130.183 190.969,132.332 191.619,134.143 192.042 C 135.954 192.464,138.293 193.236,139.341 193.757 C 140.390 194.278,142.106 194.978,143.154 195.313 C 144.203 195.647,145.763 196.353,146.620 196.880 C 147.478 197.408,148.960 198.092,149.913 198.400 C 150.867 198.709,152.564 199.585,153.686 200.347 C 154.808 201.109,155.927 201.733,156.173 201.733 C 156.418 201.733,157.325 202.272,158.187 202.930 C 159.049 203.588,160.348 204.429,161.073 204.799 C 161.798 205.169,162.703 205.817,163.084 206.238 C 163.465 206.659,164.244 207.245,164.814 207.540 C 167.806 209.087,181.167 222.389,182.656 225.303 C 182.900 225.780,183.540 226.638,184.078 227.210 C 184.617 227.782,185.461 229.131,185.953 230.208 C 186.445 231.285,187.102 232.377,187.413 232.635 C 187.724 232.892,188.561 234.370,189.274 235.920 C 189.987 237.469,190.730 238.836,190.926 238.956 C 191.121 239.077,191.626 240.227,192.049 241.512 C 192.472 242.796,193.247 244.707,193.772 245.757 C 194.297 246.808,194.994 248.732,195.320 250.033 C 195.646 251.335,196.277 253.294,196.721 254.387 C 197.701 256.799,198.611 261.780,198.612 264.743 L 198.614 266.920 192.427 273.235 C 169.875 296.254,172.033 294.335,170.554 292.679 C 169.995 292.054,169.505 291.004,169.366 290.132 C 169.236 289.316,168.800 287.927,168.398 287.045 C 167.997 286.163,167.295 284.049,166.840 282.347 C 166.384 280.645,165.717 278.774,165.356 278.188 C 164.995 277.602,164.301 276.059,163.812 274.759 C 163.324 273.459,162.604 271.946,162.213 271.397 C 161.822 270.847,161.118 269.530,160.649 268.469 C 160.180 267.408,159.288 265.773,158.667 264.836 C 158.047 263.898,157.071 262.393,156.499 261.491 C 153.250 256.364,152.969 255.988,149.408 251.993 C 145.695 247.827,137.138 239.515,136.563 239.515 C 136.377 239.515,135.638 238.997,134.923 238.364 C 134.208 237.732,132.998 236.845,132.236 236.394 C 131.473 235.944,130.315 235.116,129.661 234.555 C 129.008 233.994,127.974 233.327,127.363 233.072 C 126.753 232.817,125.785 232.214,125.213 231.733 C 124.641 231.251,123.159 230.402,121.919 229.846 C 120.680 229.290,119.569 228.679,119.451 228.488 C 119.333 228.297,118.028 227.639,116.550 227.026 C 115.073 226.413,113.473 225.634,112.994 225.296 C 112.515 224.957,110.955 224.330,109.528 223.902 C 108.100 223.474,106.060 222.688,104.994 222.156 C 103.927 221.624,101.359 220.833,99.286 220.398 C 95.192 219.539,94.523 219.128,93.973 217.140 L 93.621 215.864 98.435 210.965 C 101.082 208.270,106.573 202.656,110.636 198.488 C 120.581 188.288,120.054 188.591,126.072 189.613 M90.716 227.006 C 92.581 227.370,94.887 228.006,95.841 228.418 C 96.794 228.831,98.892 229.482,100.503 229.865 C 102.115 230.248,104.186 230.944,105.107 231.410 C 106.028 231.877,107.906 232.664,109.280 233.160 C 110.655 233.656,112.249 234.410,112.822 234.835 C 113.396 235.261,114.636 235.897,115.578 236.248 C 116.520 236.599,118.005 237.378,118.879 237.979 C 119.752 238.580,120.817 239.183,121.246 239.319 C 121.674 239.455,122.693 240.076,123.509 240.700 C 124.326 241.323,125.844 242.406,126.882 243.106 C 129.907 245.146,131.117 246.062,132.409 247.294 C 133.076 247.930,134.534 249.286,135.648 250.308 C 138.412 252.844,138.133 252.564,141.361 256.054 C 142.948 257.771,144.568 259.704,144.960 260.350 C 145.351 260.996,146.029 261.857,146.466 262.264 C 146.903 262.670,147.646 263.762,148.118 264.690 C 148.591 265.618,149.460 266.984,150.052 267.725 C 150.643 268.466,151.127 269.246,151.127 269.458 C 151.128 269.670,151.741 270.746,152.490 271.848 C 153.239 272.951,154.116 274.649,154.439 275.621 C 154.762 276.594,155.466 278.110,156.004 278.990 C 156.541 279.869,157.237 281.603,157.549 282.842 C 157.861 284.081,158.558 286.109,159.098 287.348 C 159.638 288.588,160.338 291.083,160.654 292.894 C 160.971 294.705,161.548 297.302,161.937 298.664 C 163.198 303.077,161.578 305.490,149.875 316.638 C 140.806 325.276,141.804 325.502,128.222 311.745 C 109.096 292.372,98.043 281.095,95.478 278.336 C 93.971 276.716,89.302 271.944,85.104 267.733 C 80.905 263.521,75.583 258.062,73.277 255.601 C 63.608 245.282,63.416 246.740,76.147 233.804 L 83.490 226.343 85.407 226.343 C 86.461 226.343,88.850 226.641,90.716 227.006 " stroke="none" fill="#fbfbfb" fill-rule="evenodd"></path></g></svg>