<svg id="svg" version="1.1" xmlns="http://www.w3.org/2000/svg" xmlns:xlink="http://www.w3.org/1999/xlink" width="400" height="303.87596899224803" viewBox="0, 0, 400,303.87596899224803"><g id="svgg"><path id="path0" d="M180.039 51.957 C 177.901 52.927,177.575 53.758,178.508 55.857 C 179.002 56.967,179.571 59.361,180.078 62.462 C 180.515 65.137,181.133 68.283,181.451 69.453 C 184.158 79.423,184.148 108.594,181.434 121.429 C 181.116 122.933,180.446 127.758,179.945 132.150 C 179.444 136.543,178.701 141.467,178.293 143.093 C 177.886 144.718,177.194 149.088,176.757 152.803 C 176.269 156.940,175.675 160.513,175.223 162.023 C 174.817 163.379,174.138 167.179,173.714 170.466 C 172.873 176.993,172.495 179.121,171.853 180.941 C 171.621 181.597,171.017 184.994,170.511 188.490 C 170.005 191.985,169.256 196.244,168.848 197.954 C 168.439 199.664,167.827 202.910,167.487 205.167 C 167.147 207.424,166.465 210.707,165.970 212.462 C 165.476 214.217,164.727 217.865,164.306 220.568 C 163.886 223.271,163.269 226.280,162.935 227.255 C 161.347 231.887,161.075 234.512,162.024 236.047 L 162.650 237.060 163.893 236.159 C 164.577 235.664,165.293 235.258,165.484 235.258 C 165.675 235.258,166.352 234.767,166.989 234.166 C 167.626 233.565,168.606 232.882,169.168 232.647 C 169.730 232.412,170.640 231.831,171.189 231.355 C 171.739 230.880,172.872 230.103,173.708 229.630 C 174.544 229.156,175.843 228.336,176.596 227.807 C 177.348 227.278,178.579 226.607,179.331 226.315 C 180.084 226.024,181.140 225.451,181.678 225.042 C 182.217 224.633,183.584 223.883,184.716 223.375 C 185.848 222.867,187.218 222.113,187.760 221.700 C 188.301 221.287,189.648 220.609,190.752 220.193 C 191.857 219.777,193.261 219.095,193.873 218.675 C 194.484 218.256,195.942 217.627,197.112 217.277 C 198.283 216.927,200.198 216.128,201.368 215.500 C 202.538 214.872,204.248 214.116,205.167 213.820 C 206.087 213.524,207.591 212.891,208.511 212.413 C 209.430 211.935,211.550 211.253,213.222 210.896 C 214.894 210.540,216.982 209.921,217.862 209.520 C 218.743 209.120,221.385 208.385,223.733 207.887 C 226.082 207.389,228.821 206.638,229.820 206.217 C 230.997 205.722,233.629 205.137,237.295 204.558 C 240.407 204.065,243.650 203.460,244.501 203.213 C 247.717 202.279,254.567 201.626,270.517 200.732 C 280.182 200.191,285.347 200.251,298.328 201.057 C 310.398 201.806,313.291 202.084,317.168 202.868 C 321.316 203.706,321.418 203.676,321.703 201.526 C 321.877 200.214,321.788 199.818,320.999 198.416 C 320.502 197.532,319.800 195.714,319.439 194.377 C 319.078 193.040,318.401 191.261,317.934 190.426 C 317.468 189.590,316.720 187.691,316.272 186.207 C 315.824 184.722,315.140 183.013,314.751 182.407 C 314.362 181.802,313.687 180.182,313.251 178.806 C 312.815 177.431,312.058 175.676,311.570 174.906 C 311.082 174.137,310.402 172.585,310.060 171.457 C 309.718 170.330,309.084 168.887,308.653 168.252 C 308.221 167.616,307.537 166.214,307.131 165.138 C 306.726 164.061,305.926 162.403,305.354 161.453 C 304.782 160.504,304.093 159.034,303.823 158.188 C 303.553 157.342,302.859 155.914,302.280 155.015 C 301.700 154.116,301.005 152.688,300.735 151.842 C 300.465 150.996,299.844 149.730,299.354 149.028 C 298.865 148.326,298.115 146.821,297.688 145.684 C 297.261 144.547,296.598 143.204,296.214 142.699 C 295.831 142.194,295.080 140.733,294.547 139.453 C 294.014 138.172,293.358 136.943,293.090 136.723 C 292.822 136.503,292.202 135.433,291.711 134.347 C 291.221 133.260,290.488 131.930,290.082 131.392 C 289.676 130.853,288.942 129.516,288.450 128.419 C 287.958 127.323,287.222 125.986,286.813 125.447 C 286.405 124.909,285.710 123.649,285.269 122.647 C 284.828 121.646,284.208 120.551,283.891 120.214 C 283.575 119.876,282.847 118.573,282.275 117.317 C 281.702 116.061,281.000 114.840,280.715 114.603 C 280.429 114.365,279.728 113.226,279.157 112.070 C 278.586 110.915,277.780 109.567,277.365 109.075 C 276.951 108.582,276.352 107.604,276.034 106.901 C 275.716 106.198,275.171 105.328,274.824 104.968 C 274.478 104.607,273.752 103.581,273.212 102.688 C 272.672 101.795,271.708 100.486,271.070 99.779 C 270.431 99.072,269.909 98.348,269.909 98.170 C 269.909 97.992,269.322 97.202,268.605 96.416 C 267.888 95.629,266.965 94.473,266.553 93.847 C 266.142 93.221,265.707 92.708,265.587 92.707 C 265.467 92.706,264.835 91.987,264.182 91.109 C 261.512 87.518,249.842 76.114,246.560 73.889 C 245.944 73.472,245.167 72.872,244.833 72.557 C 244.498 72.242,243.746 71.735,243.161 71.432 C 242.576 71.129,241.550 70.443,240.881 69.908 C 240.213 69.373,238.905 68.550,237.976 68.079 C 237.046 67.608,236.089 66.984,235.848 66.692 C 235.607 66.400,234.407 65.703,233.181 65.143 C 231.955 64.584,230.519 63.806,229.990 63.416 C 229.460 63.025,228.412 62.469,227.660 62.179 C 226.907 61.890,225.334 61.130,224.164 60.491 C 222.994 59.851,221.011 59.030,219.757 58.665 C 218.503 58.301,217.016 57.735,216.453 57.409 C 215.889 57.083,213.906 56.403,212.046 55.898 C 210.185 55.392,207.910 54.644,206.991 54.236 C 205.129 53.408,201.254 52.757,195.302 52.271 C 193.121 52.093,190.083 51.817,188.550 51.658 C 184.171 51.202,181.494 51.296,180.039 51.957 M163.678 55.713 C 162.675 56.093,161.079 56.847,160.132 57.388 C 159.185 57.930,157.626 58.644,156.666 58.974 C 155.706 59.304,154.467 59.920,153.913 60.343 C 153.359 60.766,152.046 61.498,150.997 61.969 C 149.947 62.441,148.678 63.159,148.176 63.566 C 147.675 63.972,146.512 64.633,145.593 65.034 C 144.673 65.435,143.442 66.127,142.857 66.573 C 142.272 67.019,141.315 67.626,140.729 67.922 C 140.144 68.218,138.975 68.975,138.130 69.605 C 137.286 70.234,135.918 71.094,135.091 71.515 C 134.263 71.936,133.245 72.649,132.827 73.099 C 132.409 73.549,131.675 74.122,131.197 74.371 C 129.699 75.149,124.154 79.770,117.851 85.490 C 115.386 87.727,108.985 94.135,106.991 96.360 C 106.071 97.387,104.887 98.660,104.359 99.189 C 103.832 99.719,102.774 100.973,102.010 101.976 C 101.246 102.979,99.797 104.825,98.789 106.079 C 97.781 107.333,96.718 108.759,96.427 109.249 C 96.135 109.739,95.401 110.696,94.796 111.377 C 94.191 112.057,93.388 113.229,93.012 113.982 C 92.636 114.734,91.886 115.897,91.346 116.565 C 90.805 117.234,90.118 118.260,89.818 118.845 C 89.518 119.430,88.848 120.409,88.329 121.020 C 87.810 121.631,87.059 122.960,86.660 123.974 C 86.261 124.988,85.659 126.061,85.322 126.359 C 84.986 126.656,84.316 127.763,83.833 128.818 C 83.351 129.872,82.559 131.284,82.073 131.955 C 81.587 132.626,80.963 133.883,80.687 134.748 C 80.411 135.614,79.713 137.105,79.136 138.062 C 78.559 139.020,77.807 140.661,77.463 141.710 C 77.120 142.759,76.387 144.438,75.833 145.441 C 75.280 146.444,74.587 148.153,74.293 149.240 C 73.999 150.327,73.315 152.105,72.773 153.191 C 72.231 154.278,71.437 156.499,71.009 158.126 C 70.580 159.754,69.963 161.609,69.637 162.248 C 69.311 162.886,68.675 165.111,68.225 167.191 C 67.774 169.271,67.339 171.271,67.258 171.636 C 66.726 174.024,68.312 175.837,71.733 176.751 C 72.819 177.041,74.644 177.741,75.788 178.307 C 76.931 178.872,78.900 179.682,80.163 180.106 C 81.426 180.530,82.788 181.135,83.189 181.450 C 83.590 181.766,84.904 182.394,86.108 182.845 C 87.313 183.297,89.004 184.062,89.868 184.546 C 90.731 185.029,92.235 185.698,93.211 186.033 C 94.187 186.367,95.566 187.056,96.277 187.564 C 96.988 188.073,98.425 188.876,99.469 189.350 C 100.514 189.824,101.642 190.514,101.976 190.883 C 102.310 191.253,103.267 191.901,104.103 192.323 C 104.939 192.745,106.020 193.423,106.504 193.828 C 106.989 194.234,108.152 194.953,109.088 195.426 C 110.024 195.899,111.064 196.589,111.398 196.960 C 111.733 197.330,112.507 197.889,113.118 198.201 C 113.730 198.513,114.842 199.298,115.590 199.945 C 116.338 200.593,117.479 201.441,118.126 201.831 C 118.772 202.220,119.985 203.140,120.821 203.873 C 124.913 207.466,125.685 208.153,127.054 209.422 C 130.041 212.194,132.506 214.663,133.223 215.601 C 133.628 216.131,134.491 217.140,135.141 217.842 C 137.192 220.060,138.475 221.677,139.633 223.508 C 140.252 224.484,141.042 225.579,141.389 225.939 C 141.736 226.300,142.294 227.211,142.628 227.964 C 142.961 228.716,143.578 229.791,143.998 230.352 C 144.418 230.913,145.211 232.455,145.761 233.778 C 146.769 236.205,149.490 239.818,150.309 239.818 C 150.895 239.818,151.577 237.662,152.108 234.138 C 152.364 232.436,152.973 229.837,153.462 228.363 C 153.951 226.890,154.579 224.111,154.858 222.188 C 155.490 217.823,155.755 216.572,156.688 213.526 C 157.098 212.188,157.779 208.701,158.202 205.775 C 158.625 202.850,159.320 199.366,159.746 198.035 C 160.172 196.703,160.787 193.694,161.113 191.348 C 161.924 185.508,162.249 183.759,162.955 181.459 C 163.288 180.372,163.953 176.611,164.432 173.100 C 164.911 169.590,165.642 165.418,166.057 163.830 C 166.471 162.242,167.115 158.617,167.486 155.775 C 167.858 152.933,168.489 149.309,168.889 147.720 C 169.289 146.132,169.883 142.439,170.210 139.514 C 171.165 130.971,171.439 129.066,172.058 126.702 C 175.165 114.820,175.164 76.859,172.057 67.021 C 171.582 65.517,170.959 62.782,170.673 60.945 C 169.925 56.148,169.527 55.547,166.869 55.201 C 165.855 55.069,165.031 55.201,163.678 55.713 M242.169 104.727 C 245.185 105.711,246.886 106.454,248.054 107.295 C 250.692 109.198,254.086 112.241,254.576 113.143 C 254.824 113.601,255.365 114.197,255.776 114.466 C 256.188 114.736,256.825 115.455,257.192 116.065 C 257.559 116.674,258.321 117.720,258.886 118.389 C 260.846 120.708,262.979 123.768,263.574 125.114 C 263.903 125.858,264.560 126.908,265.033 127.447 C 265.507 127.986,266.237 129.273,266.657 130.306 C 267.077 131.339,267.823 132.705,268.314 133.341 C 268.806 133.978,269.510 135.315,269.878 136.314 C 270.246 137.312,270.872 138.555,271.269 139.074 C 271.665 139.594,272.416 141.125,272.937 142.477 C 273.458 143.828,274.160 145.284,274.496 145.711 C 274.831 146.137,275.436 147.456,275.839 148.641 C 276.242 149.827,276.971 151.506,277.459 152.374 C 277.947 153.241,278.652 154.909,279.027 156.079 C 279.402 157.249,280.090 158.891,280.556 159.726 C 281.022 160.562,281.765 162.438,282.206 163.894 C 282.647 165.350,283.361 167.172,283.791 167.942 C 284.222 168.713,284.908 170.667,285.317 172.285 C 285.726 173.904,286.378 175.775,286.766 176.444 C 287.779 178.190,288.450 180.690,288.450 182.723 C 288.450 185.643,288.793 185.572,276.918 185.103 C 266.344 184.684,260.941 184.780,253.040 185.524 C 250.365 185.775,246.455 186.123,244.352 186.296 C 242.222 186.472,239.663 186.885,238.577 187.230 C 237.504 187.570,234.027 188.261,230.851 188.766 C 225.265 189.654,223.810 189.987,221.036 191.013 C 220.318 191.278,218.185 191.823,216.296 192.223 C 214.407 192.623,212.148 193.312,211.275 193.754 C 210.403 194.196,208.421 194.880,206.872 195.273 C 205.323 195.666,203.246 196.395,202.256 196.893 C 201.266 197.391,199.379 198.093,198.062 198.453 C 196.746 198.813,195.104 199.438,194.415 199.842 C 192.846 200.761,190.757 201.135,190.123 200.609 C 189.222 199.862,189.638 193.532,190.892 188.906 C 191.209 187.736,191.749 184.590,192.092 181.915 C 192.829 176.164,193.170 174.370,193.962 172.075 C 194.286 171.134,194.902 168.318,195.331 165.816 C 195.761 163.315,196.498 160.222,196.969 158.943 C 197.441 157.664,198.129 155.197,198.499 153.461 C 198.869 151.725,199.545 149.483,200.001 148.480 C 200.457 147.477,201.133 145.357,201.503 143.769 C 201.873 142.181,202.563 140.198,203.035 139.362 C 203.507 138.526,204.184 136.889,204.540 135.725 C 204.896 134.561,205.654 132.775,206.224 131.755 C 206.794 130.736,207.559 129.090,207.924 128.097 C 208.289 127.104,208.921 125.845,209.328 125.299 C 209.736 124.753,210.353 123.659,210.700 122.867 C 211.047 122.076,211.756 120.936,212.276 120.334 C 212.796 119.732,213.733 118.433,214.358 117.447 C 215.507 115.632,217.238 113.297,218.051 112.462 C 225.847 104.463,233.667 101.955,242.169 104.727 M64.850 185.830 C 62.068 188.612,63.495 191.178,68.583 192.540 C 70.065 192.937,71.892 193.614,72.644 194.046 C 73.397 194.477,75.174 195.188,76.595 195.624 C 78.015 196.061,79.542 196.678,79.988 196.995 C 80.434 197.313,81.746 197.958,82.903 198.429 C 84.060 198.900,85.474 199.637,86.044 200.068 C 86.615 200.498,88.037 201.280,89.204 201.806 C 90.370 202.331,91.603 203.022,91.942 203.341 C 92.282 203.659,93.337 204.264,94.288 204.685 C 95.239 205.105,96.674 205.917,97.477 206.488 C 98.279 207.059,99.508 207.814,100.208 208.166 C 100.907 208.518,101.660 209.056,101.880 209.360 C 102.100 209.665,103.066 210.432,104.027 211.065 C 104.989 211.699,105.775 212.337,105.775 212.483 C 105.775 212.629,106.448 213.197,107.270 213.745 C 108.093 214.293,110.136 215.939,111.810 217.401 C 114.609 219.846,116.116 221.419,120.156 226.112 C 120.960 227.047,122.029 228.278,122.530 228.847 C 123.031 229.417,123.693 230.375,124.001 230.975 C 124.309 231.576,124.929 232.409,125.380 232.827 C 125.830 233.245,126.476 234.134,126.814 234.802 C 127.152 235.471,127.911 236.696,128.500 237.524 C 129.090 238.353,129.882 239.721,130.261 240.564 C 130.640 241.407,131.300 242.563,131.727 243.131 C 132.154 243.700,132.800 245.068,133.163 246.171 C 133.525 247.274,134.275 249.065,134.831 250.152 C 135.386 251.239,136.113 253.290,136.446 254.711 C 136.779 256.132,137.387 258.116,137.797 259.119 C 138.207 260.122,138.770 262.447,139.048 264.286 C 140.221 272.042,141.020 272.569,143.328 267.107 C 145.143 262.813,145.139 263.003,143.603 255.341 C 141.964 247.165,141.740 246.285,141.045 245.292 C 140.752 244.872,140.134 243.366,139.671 241.945 C 139.209 240.524,138.387 238.678,137.844 237.842 C 137.302 237.006,136.548 235.707,136.169 234.954 C 135.790 234.202,135.144 233.176,134.734 232.675 C 134.324 232.173,133.556 231.060,133.027 230.201 C 131.077 227.030,126.106 221.100,122.948 218.179 C 122.447 217.715,120.669 216.045,118.997 214.467 C 116.159 211.790,113.353 209.486,111.187 208.055 C 110.681 207.720,109.700 206.952,109.009 206.346 C 108.317 205.741,107.159 204.946,106.435 204.580 C 105.712 204.214,104.233 203.307,103.148 202.565 C 102.064 201.823,101.005 201.216,100.795 201.216 C 100.585 201.216,99.876 200.756,99.219 200.195 C 98.562 199.633,97.272 198.793,96.353 198.328 C 95.433 197.863,94.271 197.172,93.769 196.794 C 93.267 196.415,91.971 195.748,90.888 195.310 C 89.804 194.873,88.417 194.168,87.805 193.744 C 87.193 193.319,85.665 192.589,84.409 192.121 C 83.153 191.652,81.705 190.969,81.192 190.603 C 80.678 190.238,79.277 189.605,78.079 189.197 C 76.881 188.790,75.310 188.110,74.588 187.688 C 73.525 187.065,69.640 185.526,66.790 184.600 C 66.421 184.480,65.817 184.863,64.850 185.830 M273.252 209.127 C 271.998 209.249,267.553 209.639,263.374 209.994 C 252.896 210.884,247.381 211.497,245.017 212.035 C 243.913 212.286,240.684 212.964,237.842 213.543 C 235.000 214.121,231.816 214.936,230.766 215.354 C 229.717 215.772,227.049 216.474,224.839 216.913 C 222.629 217.353,220.205 218.021,219.453 218.397 C 218.701 218.774,216.453 219.509,214.458 220.030 C 212.463 220.552,210.352 221.261,209.767 221.606 C 209.182 221.951,207.471 222.633,205.965 223.121 C 204.459 223.609,202.702 224.356,202.062 224.780 C 201.421 225.203,199.910 225.906,198.703 226.342 C 197.496 226.777,196.097 227.447,195.593 227.832 C 195.090 228.216,193.751 228.946,192.619 229.454 C 191.486 229.962,190.119 230.713,189.581 231.123 C 189.042 231.533,187.828 232.158,186.882 232.511 C 185.937 232.864,184.706 233.486,184.147 233.894 C 183.588 234.301,182.385 234.984,181.473 235.413 C 180.562 235.841,179.126 236.717,178.282 237.361 C 177.438 238.004,176.314 238.749,175.783 239.018 C 175.253 239.286,174.364 239.927,173.808 240.444 C 173.251 240.960,172.293 241.644,171.677 241.963 C 171.062 242.283,170.464 242.697,170.349 242.882 C 170.234 243.068,169.165 243.845,167.973 244.609 C 166.781 245.373,165.301 246.419,164.684 246.935 C 164.067 247.451,162.655 248.625,161.547 249.544 C 156.576 253.669,155.015 256.334,155.015 260.698 C 155.015 263.154,156.683 263.977,157.899 262.121 C 158.168 261.710,159.031 260.977,159.817 260.491 C 160.603 260.005,161.416 259.330,161.623 258.992 C 161.830 258.654,162.445 258.153,162.991 257.879 C 163.536 257.605,164.734 256.806,165.653 256.104 C 166.573 255.402,167.941 254.473,168.693 254.041 C 169.446 253.608,170.335 252.952,170.669 252.582 C 171.003 252.212,171.960 251.564,172.796 251.142 C 173.632 250.720,174.726 250.029,175.228 249.607 C 175.729 249.186,176.831 248.533,177.677 248.158 C 178.522 247.783,179.616 247.139,180.108 246.727 C 180.600 246.314,181.892 245.534,182.979 244.992 C 184.065 244.450,185.229 243.755,185.565 243.448 C 185.901 243.140,186.996 242.527,187.997 242.086 C 188.998 241.645,190.251 240.956,190.780 240.555 C 191.309 240.154,192.746 239.343,193.972 238.753 C 195.198 238.163,196.748 237.343,197.416 236.930 C 198.085 236.518,199.316 235.959,200.152 235.690 C 200.988 235.420,202.424 234.749,203.343 234.198 C 204.263 233.646,206.029 232.895,207.269 232.527 C 208.508 232.160,210.013 231.551,210.612 231.175 C 211.212 230.798,212.865 230.108,214.286 229.640 C 215.707 229.173,217.622 228.415,218.541 227.957 C 219.460 227.499,221.444 226.818,222.948 226.444 C 224.453 226.070,226.351 225.427,227.166 225.015 C 227.981 224.604,230.511 223.864,232.789 223.371 C 235.067 222.879,237.682 222.147,238.602 221.746 C 239.698 221.269,242.319 220.697,246.212 220.086 C 249.478 219.574,252.829 218.955,253.659 218.710 C 262.143 216.212,297.436 215.716,309.107 217.931 C 309.866 218.075,311.649 218.469,313.070 218.806 C 318.225 220.029,327.356 221.357,327.356 220.884 C 327.356 220.806,327.557 220.261,327.803 219.673 C 328.792 217.306,325.923 213.644,322.613 213.046 C 321.627 212.868,320.137 212.533,319.301 212.301 C 316.894 211.633,311.831 210.991,306.231 210.643 C 303.389 210.466,299.696 210.121,298.024 209.876 C 291.109 208.860,279.595 208.512,273.252 209.127 " stroke="none" fill="#090909" fill-rule="evenodd"></path><path id="path1" d="M0.000 151.976 L 0.000 303.951 200.000 303.951 L 400.000 303.951 400.000 151.976 L 400.000 0.000 200.000 0.000 L 0.000 0.000 0.000 151.976 M188.550 51.658 C 190.083 51.817,193.121 52.093,195.302 52.271 C 201.254 52.757,205.129 53.408,206.991 54.236 C 207.910 54.644,210.185 55.392,212.046 55.898 C 213.906 56.403,215.889 57.083,216.453 57.409 C 217.016 57.735,218.503 58.301,219.757 58.665 C 221.011 59.030,222.994 59.851,224.164 60.491 C 225.334 61.130,226.907 61.890,227.660 62.179 C 228.412 62.469,229.460 63.025,229.990 63.416 C 230.519 63.806,231.955 64.584,233.181 65.143 C 234.407 65.703,235.607 66.400,235.848 66.692 C 236.089 66.984,237.046 67.608,237.976 68.079 C 238.905 68.550,240.213 69.373,240.881 69.908 C 241.550 70.443,242.576 71.129,243.161 71.432 C 243.746 71.735,244.498 72.242,244.833 72.557 C 245.167 72.872,245.944 73.472,246.560 73.889 C 249.842 76.114,261.512 87.518,264.182 91.109 C 264.835 91.987,265.467 92.706,265.587 92.707 C 265.707 92.708,266.142 93.221,266.553 93.847 C 266.965 94.473,267.888 95.629,268.605 96.416 C 269.322 97.202,269.909 97.992,269.909 98.170 C 269.909 98.348,270.431 99.072,271.070 99.779 C 271.708 100.486,272.672 101.795,273.212 102.688 C 273.752 103.581,274.478 104.607,274.824 104.968 C 275.171 105.328,275.716 106.198,276.034 106.901 C 276.352 107.604,276.951 108.582,277.365 109.075 C 277.780 109.567,278.586 110.915,279.157 112.070 C 279.728 113.226,280.429 114.365,280.715 114.603 C 281.000 114.840,281.702 116.061,282.275 117.317 C 282.847 118.573,283.575 119.876,283.891 120.214 C 284.208 120.551,284.828 121.646,285.269 122.647 C 285.710 123.649,286.405 124.909,286.813 125.447 C 287.222 125.986,287.958 127.323,288.450 128.419 C 288.942 129.516,289.676 130.853,290.082 131.392 C 290.488 131.930,291.221 133.260,291.711 134.347 C 292.202 135.433,292.822 136.503,293.090 136.723 C 293.358 136.943,294.014 138.172,294.547 139.453 C 295.080 140.733,295.831 142.194,296.214 142.699 C 296.598 143.204,297.261 144.547,297.688 145.684 C 298.115 146.821,298.865 148.326,299.354 149.028 C 299.844 149.730,300.465 150.996,300.735 151.842 C 301.005 152.688,301.700 154.116,302.280 155.015 C 302.859 155.914,303.553 157.342,303.823 158.188 C 304.093 159.034,304.782 160.504,305.354 161.453 C 305.926 162.403,306.726 164.061,307.131 165.138 C 307.537 166.214,308.221 167.616,308.653 168.252 C 309.084 168.887,309.718 170.330,310.060 171.457 C 310.402 172.585,311.082 174.137,311.570 174.906 C 312.058 175.676,312.815 177.431,313.251 178.806 C 313.687 180.182,314.362 181.802,314.751 182.407 C 315.140 183.013,315.824 184.722,316.272 186.207 C 316.720 187.691,317.468 189.590,317.934 190.426 C 318.401 191.261,319.078 193.040,319.439 194.377 C 319.800 195.714,320.502 197.532,320.999 198.416 C 321.788 199.818,321.877 200.214,321.703 201.526 C 321.418 203.676,321.316 203.706,317.168 202.868 C 313.291 202.084,310.398 201.806,298.328 201.057 C 285.347 200.251,280.182 200.191,270.517 200.732 C 254.567 201.626,247.717 202.279,244.501 203.213 C 243.650 203.460,240.407 204.065,237.295 204.558 C 233.629 205.137,230.997 205.722,229.820 206.217 C 228.821 206.638,226.082 207.389,223.733 207.887 C 221.385 208.385,218.743 209.120,217.862 209.520 C 216.982 209.921,214.894 210.540,213.222 210.896 C 211.550 211.253,209.430 211.935,208.511 212.413 C 207.591 212.891,206.087 213.524,205.167 213.820 C 204.248 214.116,202.538 214.872,201.368 215.500 C 200.198 216.128,198.283 216.927,197.112 217.277 C 195.942 217.627,194.484 218.256,193.873 218.675 C 193.261 219.095,191.857 219.777,190.752 220.193 C 189.648 220.609,188.301 221.287,187.760 221.700 C 187.218 222.113,185.848 222.867,184.716 223.375 C 183.584 223.883,182.217 224.633,181.678 225.042 C 181.140 225.451,180.084 226.024,179.331 226.315 C 178.579 226.607,177.348 227.278,176.596 227.807 C 175.843 228.336,174.544 229.156,173.708 229.630 C 172.872 230.103,171.739 230.880,171.189 231.355 C 170.640 231.831,169.730 232.412,169.168 232.647 C 168.606 232.882,167.626 233.565,166.989 234.166 C 166.352 234.767,165.675 235.258,165.484 235.258 C 165.293 235.258,164.577 235.664,163.893 236.159 L 162.650 237.060 162.024 236.047 C 161.075 234.512,161.347 231.887,162.935 227.255 C 163.269 226.280,163.886 223.271,164.306 220.568 C 164.727 217.865,165.476 214.217,165.970 212.462 C 166.465 210.707,167.147 207.424,167.487 205.167 C 167.827 202.910,168.439 199.664,168.848 197.954 C 169.256 196.244,170.005 191.985,170.511 188.490 C 171.017 184.994,171.621 181.597,171.853 180.941 C 172.495 179.121,172.873 176.993,173.714 170.466 C 174.138 167.179,174.817 163.379,175.223 162.023 C 175.675 160.513,176.269 156.940,176.757 152.803 C 177.194 149.088,177.886 144.718,178.293 143.093 C 178.701 141.467,179.444 136.543,179.945 132.150 C 180.446 127.758,181.116 122.933,181.434 121.429 C 184.148 108.594,184.158 79.423,181.451 69.453 C 181.133 68.283,180.515 65.137,180.078 62.462 C 179.571 59.361,179.002 56.967,178.508 55.857 C 176.839 52.102,180.023 50.771,188.550 51.658 M168.766 55.662 C 169.653 56.137,170.129 57.454,170.673 60.945 C 170.959 62.782,171.582 65.517,172.057 67.021 C 175.164 76.859,175.165 114.820,172.058 126.702 C 171.439 129.066,171.165 130.971,170.210 139.514 C 169.883 142.439,169.289 146.132,168.889 147.720 C 168.489 149.309,167.858 152.933,167.486 155.775 C 167.115 158.617,166.471 162.242,166.057 163.830 C 165.642 165.418,164.911 169.590,164.432 173.100 C 163.953 176.611,163.288 180.372,162.955 181.459 C 162.249 183.759,161.924 185.508,161.113 191.348 C 160.787 193.694,160.172 196.703,159.746 198.035 C 159.320 199.366,158.625 202.850,158.202 205.775 C 157.779 208.701,157.098 212.188,156.688 213.526 C 155.755 216.572,155.490 217.823,154.858 222.188 C 154.579 224.111,153.951 226.890,153.462 228.363 C 152.973 229.837,152.364 232.436,152.108 234.138 C 151.577 237.662,150.895 239.818,150.309 239.818 C 149.490 239.818,146.769 236.205,145.761 233.778 C 145.211 232.455,144.418 230.913,143.998 230.352 C 143.578 229.791,142.961 228.716,142.628 227.964 C 142.294 227.211,141.736 226.300,141.389 225.939 C 141.042 225.579,140.252 224.484,139.633 223.508 C 138.475 221.677,137.192 220.060,135.141 217.842 C 134.491 217.140,133.628 216.131,133.223 215.601 C 132.506 214.663,130.041 212.194,127.054 209.422 C 125.685 208.153,124.913 207.466,120.821 203.873 C 119.985 203.140,118.772 202.220,118.126 201.831 C 117.479 201.441,116.338 200.593,115.590 199.945 C 114.842 199.298,113.730 198.513,113.118 198.201 C 112.507 197.889,111.733 197.330,111.398 196.960 C 111.064 196.589,110.024 195.899,109.088 195.426 C 108.152 194.953,106.989 194.234,106.504 193.828 C 106.020 193.423,104.939 192.745,104.103 192.323 C 103.267 191.901,102.310 191.253,101.976 190.883 C 101.642 190.514,100.514 189.824,99.469 189.350 C 98.425 188.876,96.988 188.073,96.277 187.564 C 95.566 187.056,94.187 186.367,93.211 186.033 C 92.235 185.698,90.731 185.029,89.868 184.546 C 89.004 184.062,87.313 183.297,86.108 182.845 C 84.904 182.394,83.590 181.766,83.189 181.450 C 82.788 181.135,81.426 180.530,80.163 180.106 C 78.900 179.682,76.931 178.872,75.788 178.307 C 74.644 177.741,72.819 177.041,71.733 176.751 C 68.312 175.837,66.726 174.024,67.258 171.636 C 67.339 171.271,67.774 169.271,68.225 167.191 C 68.675 165.111,69.311 162.886,69.637 162.248 C 69.963 161.609,70.580 159.754,71.009 158.126 C 71.437 156.499,72.231 154.278,72.773 153.191 C 73.315 152.105,73.999 150.327,74.293 149.240 C 74.587 148.153,75.280 146.444,75.833 145.441 C 76.387 144.438,77.120 142.759,77.463 141.710 C 77.807 140.661,78.559 139.020,79.136 138.062 C 79.713 137.105,80.411 135.614,80.687 134.748 C 80.963 133.883,81.587 132.626,82.073 131.955 C 82.559 131.284,83.351 129.872,83.833 128.818 C 84.316 127.763,84.986 126.656,85.322 126.359 C 85.659 126.061,86.261 124.988,86.660 123.974 C 87.059 122.960,87.810 121.631,88.329 121.020 C 88.848 120.409,89.518 119.430,89.818 118.845 C 90.118 118.260,90.805 117.234,91.346 116.565 C 91.886 115.897,92.636 114.734,93.012 113.982 C 93.388 113.229,94.191 112.057,94.796 111.377 C 95.401 110.696,96.135 109.739,96.427 109.249 C 96.718 108.759,97.781 107.333,98.789 106.079 C 99.797 104.825,101.246 102.979,102.010 101.976 C 102.774 100.973,103.832 99.719,104.359 99.189 C 104.887 98.660,106.071 97.387,106.991 96.360 C 108.985 94.135,115.386 87.727,117.851 85.490 C 124.154 79.770,129.699 75.149,131.197 74.371 C 131.675 74.122,132.409 73.549,132.827 73.099 C 133.245 72.649,134.263 71.936,135.091 71.515 C 135.918 71.094,137.286 70.234,138.130 69.605 C 138.975 68.975,140.144 68.218,140.729 67.922 C 141.315 67.626,142.272 67.019,142.857 66.573 C 143.442 66.127,144.673 65.435,145.593 65.034 C 146.512 64.633,147.675 63.972,148.176 63.566 C 148.678 63.159,149.947 62.441,150.997 61.969 C 152.046 61.498,153.359 60.766,153.913 60.343 C 154.467 59.920,155.706 59.304,156.666 58.974 C 157.626 58.644,159.185 57.930,160.132 57.388 C 163.930 55.215,166.843 54.633,168.766 55.662 M230.699 104.524 C 228.609 105.154,226.489 105.902,225.988 106.187 C 223.571 107.560,220.334 110.119,218.051 112.462 C 217.238 113.297,215.507 115.632,214.358 117.447 C 213.733 118.433,212.796 119.732,212.276 120.334 C 211.756 120.936,211.047 122.076,210.700 122.867 C 210.353 123.659,209.736 124.753,209.328 125.299 C 208.921 125.845,208.289 127.104,207.924 128.097 C 207.559 129.090,206.794 130.736,206.224 131.755 C 205.654 132.775,204.896 134.561,204.540 135.725 C 204.184 136.889,203.507 138.526,203.035 139.362 C 202.563 140.198,201.873 142.181,201.503 143.769 C 201.133 145.357,200.457 147.477,200.001 148.480 C 199.545 149.483,198.869 151.725,198.499 153.461 C 198.129 155.197,197.441 157.664,196.969 158.943 C 196.498 160.222,195.761 163.315,195.331 165.816 C 194.902 168.318,194.286 171.134,193.962 172.075 C 193.170 174.370,192.829 176.164,192.092 181.915 C 191.749 184.590,191.209 187.736,190.892 188.906 C 189.638 193.532,189.222 199.862,190.123 200.609 C 190.757 201.135,192.846 200.761,194.415 199.842 C 195.104 199.438,196.746 198.813,198.062 198.453 C 199.379 198.093,201.266 197.391,202.256 196.893 C 203.246 196.395,205.323 195.666,206.872 195.273 C 208.421 194.880,210.403 194.196,211.275 193.754 C 212.148 193.312,214.407 192.623,216.296 192.223 C 218.185 191.823,220.318 191.278,221.036 191.013 C 223.810 189.987,225.265 189.654,230.851 188.766 C 234.027 188.261,237.504 187.570,238.577 187.230 C 239.663 186.885,242.222 186.472,244.352 186.296 C 246.455 186.123,250.365 185.775,253.040 185.524 C 260.941 184.780,266.344 184.684,276.918 185.103 C 288.793 185.572,288.450 185.643,288.450 182.723 C 288.450 180.690,287.779 178.190,286.766 176.444 C 286.378 175.775,285.726 173.904,285.317 172.285 C 284.908 170.667,284.222 168.713,283.791 167.942 C 283.361 167.172,282.647 165.350,282.206 163.894 C 281.765 162.438,281.022 160.562,280.556 159.726 C 280.090 158.891,279.402 157.249,279.027 156.079 C 278.652 154.909,277.947 153.241,277.459 152.374 C 276.971 151.506,276.242 149.827,275.839 148.641 C 275.436 147.456,274.831 146.137,274.496 145.711 C 274.160 145.284,273.458 143.828,272.937 142.477 C 272.416 141.125,271.665 139.594,271.269 139.074 C 270.872 138.555,270.246 137.312,269.878 136.314 C 269.510 135.315,268.806 133.978,268.314 133.341 C 267.823 132.705,267.077 131.339,266.657 130.306 C 266.237 129.273,265.507 127.986,265.033 127.447 C 264.560 126.908,263.903 125.858,263.574 125.114 C 262.979 123.768,260.846 120.708,258.886 118.389 C 258.321 117.720,257.559 116.674,257.192 116.065 C 256.825 115.455,256.188 114.736,255.776 114.466 C 255.365 114.197,254.824 113.601,254.576 113.143 C 254.086 112.241,250.692 109.198,248.054 107.295 C 245.859 105.712,238.705 103.335,236.212 103.361 C 235.150 103.372,233.054 103.814,230.699 104.524 M70.301 185.846 C 71.938 186.436,73.867 187.265,74.588 187.688 C 75.310 188.110,76.881 188.790,78.079 189.197 C 79.277 189.605,80.678 190.238,81.192 190.603 C 81.705 190.969,83.153 191.652,84.409 192.121 C 85.665 192.589,87.193 193.319,87.805 193.744 C 88.417 194.168,89.804 194.873,90.888 195.310 C 91.971 195.748,93.267 196.415,93.769 196.794 C 94.271 197.172,95.433 197.863,96.353 198.328 C 97.272 198.793,98.562 199.633,99.219 200.195 C 99.876 200.756,100.585 201.216,100.795 201.216 C 101.005 201.216,102.064 201.823,103.148 202.565 C 104.233 203.307,105.712 204.214,106.435 204.580 C 107.159 204.946,108.317 205.741,109.009 206.346 C 109.700 206.952,110.681 207.720,111.187 208.055 C 113.353 209.486,116.159 211.790,118.997 214.467 C 120.669 216.045,122.447 217.715,122.948 218.179 C 126.106 221.100,131.077 227.030,133.027 230.201 C 133.556 231.060,134.324 232.173,134.734 232.675 C 135.144 233.176,135.790 234.202,136.169 234.954 C 136.548 235.707,137.302 237.006,137.844 237.842 C 138.387 238.678,139.209 240.524,139.671 241.945 C 140.134 243.366,140.752 244.872,141.045 245.292 C 141.740 246.285,141.964 247.165,143.603 255.341 C 145.139 263.003,145.143 262.813,143.328 267.107 C 141.020 272.569,140.221 272.042,139.048 264.286 C 138.770 262.447,138.207 260.122,137.797 259.119 C 137.387 258.116,136.779 256.132,136.446 254.711 C 136.113 253.290,135.386 251.239,134.831 250.152 C 134.275 249.065,133.525 247.274,133.163 246.171 C 132.800 245.068,132.154 243.700,131.727 243.131 C 131.300 242.563,130.640 241.407,130.261 240.564 C 129.882 239.721,129.090 238.353,128.500 237.524 C 127.911 236.696,127.152 235.471,126.814 234.802 C 126.476 234.134,125.830 233.245,125.380 232.827 C 124.929 232.409,124.309 231.576,124.001 230.975 C 123.693 230.375,123.031 229.417,122.530 228.847 C 122.029 228.278,120.960 227.047,120.156 226.112 C 116.116 221.419,114.609 219.846,111.810 217.401 C 110.136 215.939,108.093 214.293,107.270 213.745 C 106.448 213.197,105.775 212.629,105.775 212.483 C 105.775 212.337,104.989 211.699,104.027 211.065 C 103.066 210.432,102.100 209.665,101.880 209.360 C 101.660 209.056,100.907 208.518,100.208 208.166 C 99.508 207.814,98.279 207.059,97.477 206.488 C 96.674 205.917,95.239 205.105,94.288 204.685 C 93.337 204.264,92.282 203.659,91.942 203.341 C 91.603 203.022,90.370 202.331,89.204 201.806 C 88.037 201.280,86.615 200.498,86.044 200.068 C 85.474 199.637,84.060 198.900,82.903 198.429 C 81.746 197.958,80.434 197.313,79.988 196.995 C 79.542 196.678,78.015 196.061,76.595 195.624 C 75.174 195.188,73.397 194.477,72.644 194.046 C 71.892 193.614,70.065 192.937,68.583 192.540 C 64.687 191.497,64.069 190.960,63.611 188.222 C 63.410 187.018,65.812 184.282,66.790 184.600 C 67.084 184.695,68.664 185.256,70.301 185.846 M291.489 209.125 C 293.412 209.292,296.353 209.630,298.024 209.876 C 299.696 210.121,303.389 210.466,306.231 210.643 C 311.831 210.991,316.894 211.633,319.301 212.301 C 320.137 212.533,321.627 212.868,322.613 213.046 C 325.923 213.644,328.792 217.306,327.803 219.673 C 327.557 220.261,327.356 220.806,327.356 220.884 C 327.356 221.357,318.225 220.029,313.070 218.806 C 311.649 218.469,309.866 218.075,309.107 217.931 C 297.436 215.716,262.143 216.212,253.659 218.710 C 252.829 218.955,249.478 219.574,246.212 220.086 C 242.319 220.697,239.698 221.269,238.602 221.746 C 237.682 222.147,235.067 222.879,232.789 223.371 C 230.511 223.864,227.981 224.604,227.166 225.015 C 226.351 225.427,224.453 226.070,222.948 226.444 C 221.444 226.818,219.460 227.499,218.541 227.957 C 217.622 228.415,215.707 229.173,214.286 229.640 C 212.865 230.108,211.212 230.798,210.612 231.175 C 210.013 231.551,208.508 232.160,207.269 232.527 C 206.029 232.895,204.263 233.646,203.343 234.198 C 202.424 234.749,200.988 235.420,200.152 235.690 C 199.316 235.959,198.085 236.518,197.416 236.930 C 196.748 237.343,195.198 238.163,193.972 238.753 C 192.746 239.343,191.309 240.154,190.780 240.555 C 190.251 240.956,188.998 241.645,187.997 242.086 C 186.996 242.527,185.901 243.140,185.565 243.448 C 185.229 243.755,184.065 244.450,182.979 244.992 C 181.892 245.534,180.600 246.314,180.108 246.727 C 179.616 247.139,178.522 247.783,177.677 248.158 C 176.831 248.533,175.729 249.186,175.228 249.607 C 174.726 250.029,173.632 250.720,172.796 251.142 C 171.960 251.564,171.003 252.212,170.669 252.582 C 170.335 252.952,169.446 253.608,168.693 254.041 C 167.941 254.473,166.573 255.402,165.653 256.104 C 164.734 256.806,163.536 257.605,162.991 257.879 C 162.445 258.153,161.830 258.654,161.623 258.992 C 161.416 259.330,160.603 260.005,159.817 260.491 C 159.031 260.977,158.168 261.710,157.899 262.121 C 156.683 263.977,155.015 263.154,155.015 260.698 C 155.015 256.334,156.576 253.669,161.547 249.544 C 162.655 248.625,164.067 247.451,164.684 246.935 C 165.301 246.419,166.781 245.373,167.973 244.609 C 169.165 243.845,170.234 243.068,170.349 242.882 C 170.464 242.697,171.062 242.283,171.677 241.963 C 172.293 241.644,173.251 240.960,173.808 240.444 C 174.364 239.927,175.253 239.286,175.783 239.018 C 176.314 238.749,177.438 238.004,178.282 237.361 C 179.126 236.717,180.562 235.841,181.473 235.413 C 182.385 234.984,183.588 234.301,184.147 233.894 C 184.706 233.486,185.937 232.864,186.882 232.511 C 187.828 232.158,189.042 231.533,189.581 231.123 C 190.119 230.713,191.486 229.962,192.619 229.454 C 193.751 228.946,195.090 228.216,195.593 227.832 C 196.097 227.447,197.496 226.777,198.703 226.342 C 199.910 225.906,201.421 225.203,202.062 224.780 C 202.702 224.356,204.459 223.609,205.965 223.121 C 207.471 222.633,209.182 221.951,209.767 221.606 C 210.352 221.261,212.463 220.552,214.458 220.030 C 216.453 219.509,218.701 218.774,219.453 218.397 C 220.205 218.021,222.629 217.353,224.839 216.913 C 227.049 216.474,229.717 215.772,230.766 215.354 C 231.816 214.936,235.000 214.121,237.842 213.543 C 240.684 212.964,243.913 212.286,245.017 212.035 C 247.381 211.497,252.896 210.884,263.374 209.994 C 267.553 209.639,271.998 209.249,273.252 209.127 C 276.768 208.786,287.593 208.785,291.489 209.125 " stroke="none" fill="#fbfbfb" fill-rule="evenodd"></path></g></svg>